<svg width="57" height="57" viewBox="0 0 57 57" version="1.1" xmlns="http://www.w3.org/2000/svg" xmlns:xlink="http://www.w3.org/1999/xlink">
<title>AON Logo (1)</title>
<desc>Created using Figma</desc>
<g id="Canvas" transform="translate(35857 -3282)">
<g id="AON Logo (1)">
<g id="Vector">
<use xlink:href="#path0_fill" transform="translate(-35838 3303)" fill="#FFFFFF"/>
</g>
<g id="Vector">
<use xlink:href="#path1_fill" transform="translate(-35849.7 3305.4)" fill="#FFFFFF"/>
</g>
<g id="Vector">
<use xlink:href="#path2_fill" transform="translate(-35815.3 3305.42)" fill="#FFFFFF"/>
</g>
<g id="Group">
<g id="Vector">
<use xlink:href="#path3_stroke" transform="translate(-35856 3283)" fill="#FFFFFF"/>
</g>
</g>
<g id="Vector">
<use xlink:href="#path4_stroke" transform="translate(-35854.6 3295.12)" fill="#FFFFFF"/>
</g>
<g id="Vector">
<use xlink:href="#path5_stroke" transform="translate(-35854.7 3318.46)" fill="#FFFFFF"/>
</g>
<g id="Group">
<g id="Vector">
<use xlink:href="#path6_fill" transform="translate(-35840.2 3293.99)" fill="#FFFFFF"/>
</g>
<g id="Vector">
<use xlink:href="#path7_fill" transform="translate(-35838.1 3292.44)" fill="#FFFFFF"/>
</g>
<g id="Vector">
<use xlink:href="#path8_fill" transform="translate(-35835.6 3291.44)" fill="#FFFFFF"/>
</g>
<g id="Vector">
<use xlink:href="#path9_fill" transform="translate(-35833 3290.75)" fill="#FFFFFF"/>
</g>
<g id="Vector">
<use xlink:href="#path10_fill" transform="translate(-35829.7 3290.39)" fill="#FFFFFF"/>
</g>
<g id="Vector">
<use xlink:href="#path11_fill" transform="matrix(-0.996232 -0.0870576 0.0877855 -0.996168 -35826.5 3292.22)" fill="#FFFFFF"/>
</g>
<g id="Vector">
<use xlink:href="#path12_fill" transform="translate(-35825.1 3290.88)" fill="#FFFFFF"/>
</g>
<g id="Vector">
<use xlink:href="#path13_fill" transform="translate(-35822.1 3291.73)" fill="#FFFFFF"/>
</g>
<g id="Vector">
<use xlink:href="#path14_fill" transform="translate(-35819.8 3292.41)" fill="#FFFFFF"/>
</g>
<g id="Vector">
<use xlink:href="#path15_fill" transform="translate(-35817 3294.46)" fill="#FFFFFF"/>
</g>
</g>
<g id="Vector">
<use xlink:href="#path16_stroke" transform="translate(-35851.8 3318.57)" fill="#FFFFFF"/>
</g>
<g id="Vector">
<use xlink:href="#path17_stroke" transform="translate(-35851.7 3285.88)" fill="#FFFFFF"/>
</g>
<g id="Group">
<g id="Vector">
<use xlink:href="#path18_fill" transform="translate(-35843.3 3322.9)" fill="#FFFFFF"/>
</g>
<g id="Vector">
<use xlink:href="#path19_fill" transform="translate(-35841.5 3325.08)" fill="#FFFFFF"/>
</g>
<g id="Vector">
<use xlink:href="#path20_fill" transform="translate(-35839 3327.04)" fill="#FFFFFF"/>
</g>
<g id="Vector">
<use xlink:href="#path21_fill" transform="translate(-35836.4 3328.64)" fill="#FFFFFF"/>
</g>
<g id="Vector">
<use xlink:href="#path22_fill" transform="translate(-35831.4 3329.66)" fill="#FFFFFF"/>
</g>
<g id="Vector">
<use xlink:href="#path23_fill" transform="translate(-35828.4 3329.64)" fill="#FFFFFF"/>
</g>
<g id="Vector">
<use xlink:href="#path24_fill" transform="translate(-35823.3 3328.6)" fill="#FFFFFF"/>
</g>
<g id="Vector">
<use xlink:href="#path25_fill" transform="translate(-35820.3 3327.58)" fill="#FFFFFF"/>
</g>
<g id="Vector">
<use xlink:href="#path26_fill" transform="translate(-35817.7 3326.13)" fill="#FFFFFF"/>
</g>
<g id="Vector">
<use xlink:href="#path27_fill" transform="translate(-35815.7 3324.2)" fill="#FFFFFF"/>
</g>
<g id="Vector">
<use xlink:href="#path28_fill" transform="translate(-35813.7 3322.42)" fill="#FFFFFF"/>
</g>
</g>
</g>
</g>
<defs>
<path id="path0_fill" d="M 17.9741 14.6696C 16.6508 14.742 16.5345 15.8136 15.342 15.8136C 14.1059 15.8136 14.0332 14.6696 12.5644 14.6696C 11.1248 14.6696 11.0375 15.8136 9.80143 15.8136C 8.56534 15.8136 8.49264 14.6696 7.02388 14.6696C 5.5842 14.6696 5.49695 15.8136 4.26086 15.8136C 3.1702 15.8136 2.98115 14.9157 1.94865 14.713C 2.10861 14.9592 2.29766 15.2054 2.48671 15.4371C 2.96661 15.7701 3.35925 16.248 4.26086 16.248C 5.67145 16.248 5.81687 15.1185 7.03841 15.1185C 8.25996 15.1185 8.40538 16.248 9.81597 16.248C 11.2266 16.248 11.372 15.1185 12.5935 15.1185C 13.8151 15.1185 13.9605 16.248 15.3711 16.248C 16.5635 16.248 16.8544 15.4516 17.6251 15.1909C 17.7269 15.0171 17.8433 14.8433 17.9741 14.6696ZM 18.6431 4.67746C 19.5011 6.12559 19.9373 7.77646 19.9519 9.61559C 19.8937 15.2054 15.502 19.1733 9.99048 19.2312C 4.30449 19.1877 0.0581678 15.3936 -8.87584e-07 9.61559C 0.0581678 3.92443 4.3772 0.0579252 9.99048 0C 13.5533 0.0434439 16.7817 1.57846 18.6431 4.67746ZM 19.123 12.1498C 18.8758 12.005 18.5704 11.9036 18.0905 11.9036C 16.6217 11.9036 16.5345 13.0477 15.3275 13.0477C 14.1495 13.0477 14.0187 11.9036 12.5499 11.9036C 11.0811 11.9036 10.9939 13.0477 9.78689 13.0477C 8.60897 13.0477 8.47809 11.9036 7.00933 11.9036C 5.54057 11.9036 5.45332 13.0477 4.24632 13.0477C 3.0684 13.0477 2.92298 11.9036 1.46876 11.9036C 1.17792 11.9036 0.959786 11.9326 0.770737 12.0195C 0.814364 12.1643 0.843447 12.3236 0.887073 12.4684C 1.06158 12.396 1.25063 12.367 1.46876 12.367C 2.64668 12.367 2.92298 13.4966 4.24632 13.4966C 5.61328 13.4966 5.83142 12.367 7.02388 12.367C 8.20179 12.367 8.47809 13.4966 9.80143 13.4966C 11.1684 13.4966 11.3865 12.367 12.579 12.367C 13.7569 12.367 14.0332 13.4966 15.3565 13.4966C 16.7235 13.4966 16.9416 12.367 18.1341 12.367C 18.4831 12.367 18.774 12.4684 19.0212 12.6277C 19.0357 12.4539 19.0793 12.3091 19.123 12.1498ZM 2.71939 10.1514C 2.86481 10.0211 3.01023 9.89073 3.1702 9.7604L 2.67576 9.13771C 2.86481 8.96393 3.15565 8.8336 3.37379 8.68879L 2.98115 7.96472C 3.18474 7.81991 3.51921 7.7475 3.75188 7.61717L 3.47558 6.87862C 3.75188 6.80622 3.9991 6.74829 4.2754 6.69036C 4.2754 6.67588 4.28994 6.67588 4.28994 6.6614L 4.14452 5.85045C 4.40628 5.79252 4.72621 5.83597 4.98797 5.76356L 4.98797 4.96709L 5.77325 5.05398C 5.83142 5.05398 5.88959 4.44576 5.93321 4.22854L 6.70395 4.44576C 6.83483 4.22854 6.90754 3.90995 6.99479 3.66377L 7.75098 3.99684C 7.89641 3.7941 8.01274 3.49 8.14362 3.25829L 8.82711 3.70722L 9.32154 3.05556L 9.94685 3.63481L 10.5576 3.04107L 11.0521 3.70722L 11.7355 3.22933C 11.881 3.49 12.0118 3.73618 12.1573 3.98236L 12.8844 3.63481C 12.9862 3.86651 13.0298 4.1851 13.1898 4.4168L 13.9605 4.19958C 13.9896 4.4168 14.0477 5.02501 14.1205 5.02501L 14.9203 4.93813L 14.9203 5.7346C 15.1675 5.79252 15.4874 5.77804 15.7637 5.80701L 15.6183 6.60348C 15.851 6.70485 16.1854 6.76277 16.4472 6.8207L 16.1709 7.5882C 16.4327 7.71854 16.6799 7.79095 16.9562 7.9068L 16.5199 8.61638C 16.7526 8.76119 16.9853 8.92049 17.2325 9.05082L 16.7235 9.70248L 17.058 10.0066C 17.3343 9.80385 17.6542 9.64455 18.0905 9.64455C 18.6867 9.64455 19.0793 9.94866 19.4574 10.2383C 19.472 10.0355 19.4865 9.81833 19.4865 9.61559C 19.472 7.84887 19.0503 6.28489 18.2359 4.90916C 16.4617 1.94049 13.3788 0.492364 9.99048 0.463401C 4.63896 0.506845 0.523519 4.1851 0.465351 9.61559C 0.465351 9.73144 0.465352 9.84729 0.479894 9.96314C 0.756195 9.77488 1.06158 9.64455 1.46876 9.64455C 2.00682 9.64455 2.35583 9.89073 2.71939 10.1514ZM 14.4404 5.41601L 13.6842 5.5029L 13.5824 4.76435C 13.5824 4.76435 13.5679 4.76435 13.5679 4.74987L 12.8553 4.95261C 12.768 4.72091 12.6953 4.47472 12.5935 4.24302L 11.91 4.54713C 11.7937 4.32991 11.6774 4.09821 11.5465 3.88099L 10.9212 4.31543C 10.7612 4.12717 10.6158 3.92443 10.4558 3.7217L 9.90323 4.24302L 9.35063 3.7217C 9.19066 3.90995 9.04524 4.09821 8.88527 4.31543L 8.25996 3.89547L 7.91095 4.56161L 7.21292 4.2575C 7.12567 4.4892 7.03842 4.72091 6.95116 4.98157L 6.23859 4.77883C 6.18043 4.99605 6.1368 5.28568 6.10772 5.53186L 5.35152 5.44497C 5.35152 5.44497 5.33698 5.44497 5.33698 5.45945L 5.33698 6.198C 5.07522 6.22696 4.68258 6.08215 4.58079 6.28489L 4.71167 7.00895L 3.9991 7.15377C 3.9991 7.16825 3.98456 7.16825 3.98456 7.18273L 4.23178 7.86335C 4.01364 7.96472 3.73734 8.05161 3.51921 8.18194L 3.88276 8.8336C 3.67917 8.96393 3.46104 9.10874 3.24291 9.25356L 3.70826 9.81833L 3.12657 10.3252L 3.53375 10.7017C 3.70826 10.7741 3.91185 10.8031 4.14452 10.8031C 5.51149 10.8031 5.72962 9.67351 6.92208 9.67351C 8.1 9.67351 8.3763 10.8031 9.69964 10.8031C 11.0666 10.8031 11.2847 9.67351 12.4772 9.67351C 13.6551 9.67351 13.9314 10.8031 15.2547 10.8031C 15.8074 10.8031 16.1564 10.6293 16.4763 10.4121C 16.5199 10.3686 16.5635 10.3397 16.5926 10.3107C 16.4181 10.1369 16.0546 9.81833 16.0546 9.78937C 16.0546 9.74592 16.3309 9.41285 16.4763 9.22459C 16.2582 9.07978 16.0546 8.96393 15.8364 8.80464L 16.1854 8.18194C 15.9673 8.03713 15.5747 8.05161 15.5165 7.84887L 15.7492 7.19721C 15.502 7.06688 15.1093 7.16825 15.0075 6.95103L 15.1384 6.28489C 15.0366 6.11111 14.6149 6.24144 14.3822 6.21248L 14.3822 5.41601L 14.4404 5.41601Z"/>
<path id="path1_fill" fill-rule="evenodd" d="M 2.61759 7.77646L 6.76212 7.77646L 7.6201 9.688L 9.45242 9.688L 4.91526 -4.41934e-07L 4.53716 -4.41934e-07L -4.43792e-07 9.688L 1.78869 9.688L 2.61759 7.77646ZM 4.68258 3.11348L 6.15134 6.41522L 3.21382 6.41522L 4.68258 3.11348Z"/>
<path id="path2_fill" fill-rule="evenodd" d="M 8.87584e-07 9.67351L 1.70143 9.67351L 1.70143 3.70721L 7.75099 9.73144L 8.20179 9.73144L 8.20179 0.0579248L 6.50035 0.0579248L 6.50035 6.198L 0.52352 4.41934e-07L 8.87584e-07 4.41934e-07L 8.87584e-07 9.67351Z"/>
<path id="path3_stroke" d="M 54.7312 27.5C 54.7312 42.4097 42.5931 54.5 27.6156 54.5L 27.6156 55.5C 43.1414 55.5 55.7312 42.966 55.7312 27.5L 54.7312 27.5ZM 27.6156 54.5C 12.6381 54.5 0.499999 42.4097 0.499999 27.5L -0.500001 27.5C -0.500001 42.966 12.0898 55.5 27.6156 55.5L 27.6156 54.5ZM 0.499999 27.5C 0.499999 12.5903 12.6381 0.5 27.6156 0.5L 27.6156 -0.5C 12.0898 -0.5 -0.500001 12.0341 -0.500001 27.5L 0.499999 27.5ZM 27.6156 0.5C 42.5931 0.5 54.7312 12.5903 54.7312 27.5L 55.7312 27.5C 55.7312 12.0341 43.1414 -0.5 27.6156 -0.5L 27.6156 0.5Z"/>
<path id="path4_stroke" d="M 14.4404 7.05239L 14.4404 7.55239L 14.7404 7.55239L 14.8816 7.28766L 14.4404 7.05239ZM 38.0278 7.06688L 37.5866 7.30215L 37.7278 7.56688L 38.0278 7.56688L 38.0278 7.06688ZM -8.87584e-07 7.55239L 14.4404 7.55239L 14.4404 6.55239L -8.87584e-07 6.55239L -8.87584e-07 7.55239ZM 14.8816 7.28766C 17.037 3.24583 21.3057 0.5 26.2341 0.5L 26.2341 -0.5C 20.9248 -0.5 16.3228 2.45981 13.9992 6.81712L 14.8816 7.28766ZM 26.2341 0.5C 31.1472 0.5 35.4309 3.25968 37.5866 7.30215L 38.469 6.8316C 36.1457 2.47491 31.5296 -0.5 26.2341 -0.5L 26.2341 0.5ZM 38.0278 7.56688L 52.5845 7.56688L 52.5845 6.56688L 38.0278 6.56688L 38.0278 7.56688Z"/>
<path id="path5_stroke" d="M 38.4932 0.0144813L 38.4932 -0.485519L 38.1931 -0.485519L 38.052 -0.22079L 38.4932 0.0144813ZM 14.9057 -8.83869e-07L 15.3473 -0.234642L 15.2062 -0.500001L 14.9057 -0.500001L 14.9057 -8.83869e-07ZM 52.8172 -0.485519L 38.4932 -0.485519L 38.4932 0.514481L 52.8172 0.514481L 52.8172 -0.485519ZM 38.052 -0.22079C 35.8966 3.82105 31.6278 6.56688 26.6994 6.56688L 26.6994 7.56688C 32.0088 7.56688 36.6107 4.60707 38.9343 0.249753L 38.052 -0.22079ZM 26.6994 6.56688C 21.7855 6.56688 17.5026 3.82101 15.3473 -0.234642L 14.4642 0.23464C 16.7879 4.6071 21.4047 7.56688 26.6994 7.56688L 26.6994 6.56688ZM 14.9057 -0.500001L 8.87584e-07 -0.500001L 8.87584e-07 0.499999L 14.9057 0.499999L 14.9057 -0.500001Z"/>
<path id="path6_fill" fill-rule="evenodd" d="M 0.479893 1.36124L 1.09066 0.970247L 1.39605 1.17299L 1.67235 0.999211L 0.0581705 2.20967e-07L -1.77517e-06 0.0434435L 0.26176 1.91153L 0.523518 1.73776L 0.479893 1.36124ZM 0.334471 0.463402L 0.872529 0.810953L 0.436264 1.0861L 0.334471 0.463402Z"/>
<path id="path7_fill" fill-rule="evenodd" d="M 1.41446 0.99921C 1.37083 0.897841 1.29812 0.825434 1.19633 0.78199C 1.09453 0.738546 0.949109 0.724066 0.745519 0.738547C 0.614639 0.753028 0.527386 0.753028 0.454675 0.738547C 0.396506 0.724066 0.35288 0.695102 0.323796 0.651658C 0.294712 0.593733 0.294711 0.535808 0.309253 0.492364C 0.323795 0.434439 0.381964 0.390995 0.454675 0.347551C 0.512844 0.318589 0.585554 0.304107 0.658265 0.289626C 0.730976 0.275144 0.789147 0.275145 0.847316 0.275145L 0.818229 -4.41934e-07C 0.760061 -4.41934e-07 0.672808 4.41287e-07 0.600097 0.0144817C 0.512844 0.0289631 0.425593 0.0579255 0.352882 0.101369C 0.251087 0.159295 0.163832 0.21722 0.105663 0.304108C 0.0474946 0.376514 0.0184084 0.463402 0.00386625 0.55029C -0.0106759 0.637178 0.0184111 0.724065 0.0474955 0.796471C 0.091122 0.883359 0.163832 0.955766 0.251085 0.99921C 0.35288 1.04265 0.483758 1.05714 0.658265 1.04265C 0.818229 1.02817 0.934569 1.02817 0.992737 1.04265C 1.05091 1.05714 1.09453 1.10058 1.12362 1.14402C 1.1527 1.18747 1.1527 1.24539 1.12362 1.30332C 1.09453 1.36124 1.03636 1.40469 0.949108 1.46261C 0.876397 1.49158 0.80369 1.52054 0.716437 1.53502C 0.629184 1.5495 0.541929 1.5495 0.469218 1.53502L 0.498304 1.82465C 0.585557 1.83913 0.687352 1.82464 0.789148 1.81016C 0.890943 1.79568 0.978196 1.76672 1.07999 1.72328C 1.2545 1.63639 1.37083 1.53502 1.429 1.40469C 1.48717 1.25987 1.48717 1.12954 1.41446 0.99921Z"/>
<path id="path8_fill" fill-rule="evenodd" d="M 1.31835 1.10058C 1.28926 0.99921 1.2311 0.912322 1.1293 0.854396C 1.04205 0.796471 0.882084 0.767509 0.693036 0.753028C 0.562156 0.753028 0.474904 0.738546 0.416735 0.709583C 0.358566 0.680621 0.314937 0.651659 0.300395 0.593734C 0.285853 0.535808 0.285854 0.477883 0.314938 0.43444C 0.344022 0.376514 0.402193 0.347551 0.489446 0.318589C 0.547615 0.304107 0.620325 0.289627 0.693036 0.289627C 0.765747 0.289627 0.823914 0.289626 0.882082 0.304108L 0.896625 0.0144815C 0.838457 2.21183e-07 0.765746 4.41934e-07 0.678493 4.41934e-07C 0.591239 4.41934e-07 0.503988 0.0144811 0.416735 0.0434437C 0.300398 0.0868876 0.213141 0.130331 0.14043 0.202738C 0.067719 0.275144 0.0240934 0.347552 0.00955121 0.43444C -0.00499098 0.521327 -0.00499009 0.608215 0.0240943 0.680621C 0.0531786 0.78199 0.111349 0.854397 0.198602 0.912322C 0.285855 0.970247 0.416732 0.999209 0.591239 0.999209C 0.751203 0.999209 0.867543 1.01369 0.925711 1.04265C 0.98388 1.07162 1.0275 1.11506 1.04205 1.1585C 1.05659 1.21643 1.05659 1.25987 1.01296 1.3178C 0.983877 1.37572 0.911168 1.41917 0.823914 1.44813C 0.751203 1.47709 0.663949 1.47709 0.591239 1.47709C 0.503985 1.47709 0.416735 1.46261 0.344024 1.44813L 0.329481 1.73776C 0.416734 1.75224 0.518529 1.76672 0.620325 1.76672C 0.72212 1.76672 0.823915 1.75224 0.911168 1.72327C 1.10022 1.66535 1.21655 1.57846 1.3038 1.46261C 1.34743 1.37572 1.37652 1.24539 1.31835 1.10058Z"/>
<path id="path9_fill" fill-rule="evenodd" d="M 0.019106 1.04324C 0.0481903 1.20253 0.1209 1.34735 0.222696 1.4632C 0.324491 1.57905 0.455371 1.65146 0.600793 1.70938C 0.746215 1.75283 0.906177 1.76731 1.08068 1.73834C 1.25519 1.70938 1.40061 1.63697 1.51695 1.5356C 1.63329 1.43424 1.72054 1.31839 1.77871 1.17357C 1.83688 1.02876 1.83688 0.869465 1.80779 0.710171C 1.77871 0.536395 1.706 0.406063 1.6042 0.290213C 1.50241 0.174362 1.37153 0.101956 1.22611 0.0440311C 1.08068 0.000587199 0.920721 -0.0138948 0.746215 0.0150678C 0.571709 0.0440305 0.426287 0.116437 0.30995 0.217806C 0.193612 0.319175 0.106356 0.449507 0.0481877 0.579839C -0.00998107 0.724652 -0.0099784 0.869465 0.019106 1.04324ZM 0.339031 0.985316C 0.309947 0.81154 0.339032 0.652245 0.426285 0.521914C 0.513538 0.391582 0.629877 0.304694 0.804383 0.275732C 0.978889 0.246769 1.12431 0.275732 1.25519 0.362619C 1.38607 0.449507 1.45878 0.579839 1.50241 0.753614C 1.53149 0.92739 1.50241 1.08668 1.41515 1.21702C 1.3279 1.34735 1.19702 1.43424 1.03706 1.4632C 0.920721 1.47768 0.818925 1.47768 0.731672 1.43424C 0.629877 1.40527 0.557164 1.34735 0.484453 1.26046C 0.3972 1.18805 0.353574 1.08669 0.339031 0.985316Z"/>
<path id="path10_fill" fill-rule="evenodd" d="M 1.43968 1.36124C 1.43968 1.36124 1.41059 1.37572 1.38151 1.39021C 1.33788 1.40469 1.27971 1.43365 1.207 1.44813C 1.13429 1.46261 1.04704 1.47709 0.945242 1.49157C 0.770736 1.49157 0.610771 1.44813 0.494433 1.33228C 0.378096 1.23091 0.319929 1.0861 0.305387 0.912323C 0.305387 0.738547 0.349014 0.593734 0.465352 0.477884C 0.581689 0.362033 0.727108 0.304107 0.930699 0.289626C 1.00341 0.289626 1.07612 0.289626 1.14883 0.304107C 1.22154 0.318588 1.27971 0.33307 1.32334 0.347552C 1.36697 0.362033 1.39605 0.376514 1.39605 0.376514L 1.49784 0.115851C 1.49784 0.115851 1.46876 0.101369 1.42513 0.0868876C 1.38151 0.0724063 1.3088 0.0434435 1.22154 0.0289622C 1.13429 0.0144809 1.01795 0 0.901617 0C 0.727111 0.0144813 0.581687 0.0579254 0.436266 0.130332C 0.305386 0.21722 0.189047 0.318588 0.116336 0.44892C 0.0436248 0.579252 0 0.738546 0 0.89784C 0 1.07162 0.0581679 1.21643 0.130879 1.34676C 0.218132 1.47709 0.334468 1.57846 0.47989 1.65087C 0.625312 1.72328 0.799818 1.75224 0.988867 1.75224C 1.1052 1.75224 1.207 1.73776 1.29425 1.70879C 1.38151 1.67983 1.43968 1.65087 1.4833 1.63639C 1.52693 1.60743 1.55602 1.59294 1.55602 1.59294L 1.43968 1.36124Z"/>
<path id="path11_fill" d="M 0.305377 0L 0 0L 0 1.69437L 0.305377 1.69437L 0.305377 0Z"/>
<path id="path12_fill" fill-rule="evenodd" d="M 0.523519 1.27435L 1.23609 1.41917L 1.3088 1.7812L 1.62873 1.85361L 1.207 0.0144813L 1.13429 2.20967e-07L 0 1.50606L 0.305387 1.57846L 0.523519 1.27435ZM 1.04704 0.535808L 1.17792 1.1585L 0.668941 1.05713L 1.04704 0.535808Z"/>
<path id="path13_fill" fill-rule="evenodd" d="M 1.24026 1.4968C 1.24026 1.4968 1.21118 1.4968 1.16755 1.4968C 1.12392 1.4968 1.06576 1.4968 0.978505 1.48232C 0.905794 1.46784 0.818539 1.45335 0.731286 1.42439C 0.556779 1.35198 0.440443 1.25062 0.382274 1.1058C 0.309563 0.96099 0.309562 0.816176 0.367731 0.6424C 0.440442 0.483106 0.542239 0.367256 0.687661 0.309331C 0.833083 0.251406 0.993047 0.251405 1.19664 0.323812C 1.26935 0.352775 1.32752 0.381737 1.38568 0.425181C 1.44385 0.468625 1.48748 0.497588 1.51656 0.541031C 1.54565 0.569994 1.57473 0.584476 1.57473 0.598957L 1.76378 0.396218C 1.76378 0.396218 1.74924 0.381737 1.70561 0.338293C 1.66199 0.294849 1.61836 0.251405 1.53111 0.207961C 1.45839 0.150036 1.3566 0.106592 1.24026 0.0631479C 1.0803 0.00522267 0.920336 -0.00925775 0.760372 0.00522356C 0.600408 0.0341862 0.469529 0.092111 0.338649 0.178999C 0.20777 0.265887 0.120513 0.396218 0.0623443 0.555513C -0.0103667 0.758251 -0.0249053 0.960989 0.0478056 1.14925C 0.120517 1.3375 0.251394 1.4968 0.454985 1.61265L 0.324106 1.77194L 0.338649 1.81539C 0.425902 1.85883 0.484068 1.88779 0.513153 1.91676C 0.542237 1.94572 0.542239 1.97468 0.542239 1.98916C 0.527697 2.01812 0.513156 2.03261 0.484071 2.04709C 0.454987 2.04709 0.425902 2.04709 0.396817 2.03261C 0.338648 2.00364 0.295023 1.97468 0.265938 1.94572C 0.236854 1.91676 0.222309 1.90227 0.222309 1.90227L 0.105973 2.00364C 0.105973 2.00364 0.120515 2.03261 0.164141 2.07605C 0.207768 2.11949 0.265938 2.16294 0.338649 2.1919C 0.425902 2.22086 0.513153 2.23534 0.585864 2.20638C 0.658575 2.17742 0.702201 2.13398 0.731286 2.06157C 0.76037 1.98916 0.745827 1.93124 0.716743 1.87331C 0.687658 1.82987 0.644033 1.78642 0.585864 1.75746L 0.644032 1.68505L 0.658575 1.68505C 0.76037 1.7285 0.862165 1.74298 0.949418 1.75746C 1.03667 1.77194 1.10938 1.77194 1.15301 1.75746C 1.21118 1.75746 1.22572 1.74298 1.22572 1.74298L 1.24026 1.4968Z"/>
<path id="path14_fill" fill-rule="evenodd" d="M 0.581686 1.59294L 1.22155 1.9405L 1.19246 2.30253L 1.46876 2.46182L 1.59964 0.579252L 1.54147 0.55029L -1.77517e-06 1.66535L 0.276303 1.82464L 0.581686 1.59294ZM 1.30879 1.04265L 1.25063 1.67983L 0.799818 1.43365L 1.30879 1.04265ZM 2.10861 0.318588C 2.10861 0.318588 2.09408 0.33307 2.07953 0.33307C 2.06499 0.347552 2.03591 0.347551 2.00682 0.362033C 1.97774 0.362033 1.94865 0.362033 1.91957 0.347552C 1.89048 0.33307 1.87594 0.304108 1.84686 0.275145C 1.83232 0.246182 1.80323 0.202738 1.77415 0.159294C 1.74506 0.11585 1.71598 0.0868881 1.65781 0.0579254C 1.5851 0.0144815 1.51239 0 1.45422 0C 1.39605 0 1.33788 0.0144809 1.30879 0.0289622C 1.26517 0.0434435 1.25063 0.0579254 1.25063 0.0579254L 1.32334 0.260664C 1.32334 0.260664 1.33788 0.260663 1.35242 0.246182C 1.38151 0.2317 1.41059 0.231701 1.43968 0.231701C 1.46876 0.231701 1.51239 0.2317 1.54147 0.246182C 1.57055 0.260663 1.59964 0.289627 1.62872 0.33307C 1.64327 0.362033 1.67235 0.405477 1.68689 0.434439C 1.71598 0.477883 1.74506 0.506845 1.78869 0.535808C 1.8614 0.579252 1.93411 0.593734 1.99228 0.579252C 2.05045 0.564771 2.10862 0.550289 2.15224 0.535808C 2.19587 0.506845 2.21041 0.506846 2.21041 0.492365L 2.10861 0.318588Z"/>
<path id="path15_fill" fill-rule="evenodd" d="M 0.179572 0.352774C 0.0777766 0.483106 0.0196106 0.627919 0.00506839 0.787213C -0.00947379 0.932026 0.00506839 1.09132 0.0777793 1.22165C 0.135948 1.36647 0.237744 1.48232 0.383166 1.59817C 0.528588 1.69954 0.674006 1.77194 0.83397 1.78642C 0.993934 1.8009 1.13936 1.78642 1.28478 1.7285C 1.4302 1.67057 1.54654 1.5692 1.64833 1.43887C 1.75013 1.30854 1.8083 1.16373 1.82284 1.00443C 1.83738 0.85962 1.82284 0.700325 1.75013 0.569994C 1.69196 0.425181 1.59017 0.309331 1.44474 0.19348C 1.29932 0.092111 1.1539 0.0341853 1.00848 0.00522267C 0.848514 -0.00925863 0.703091 0.00522289 0.55767 0.0631481C 0.397706 0.121073 0.281367 0.222442 0.179572 0.352774ZM 0.441334 0.555513C 0.557671 0.4107 0.688548 0.338294 0.83397 0.309331C 0.993934 0.280368 1.13936 0.323812 1.27024 0.425181C 1.40112 0.52655 1.48837 0.656882 1.50291 0.816177C 1.51745 0.975471 1.47383 1.12028 1.37203 1.2651C 1.2557 1.40991 1.12481 1.48232 0.979392 1.51128C 0.819428 1.54024 0.674006 1.4968 0.543126 1.39543C 0.455873 1.32302 0.397706 1.25062 0.35408 1.14925C 0.310453 1.04788 0.310452 0.960989 0.324994 0.845139C 0.324994 0.74377 0.368623 0.642401 0.441334 0.555513Z"/>
<path id="path16_stroke" d="M 46.2382 -0.0222552C 42.9188 9.34113 33.9423 16.0666 23.3838 16.0666L 23.3838 17.0666C 34.3769 17.0666 43.7236 10.0638 47.1808 0.311883L 46.2382 -0.0222552ZM 23.3838 16.0666C 12.7827 16.0666 3.76326 9.28438 0.472178 -0.164461L -0.472178 0.164463C 2.95523 10.0047 12.3462 17.0666 23.3838 17.0666L 23.3838 16.0666Z"/>
<path id="path17_stroke" d="M 0.472102 16.572C 3.7622 7.14017 12.6926 0.5 23.2966 0.5L 23.2966 -0.5C 12.2618 -0.5 2.9563 6.41433 -0.4721 16.2426L 0.472102 16.572ZM 23.2966 0.5C 33.7409 0.5 42.6462 7.08339 46.0513 16.3196L 46.9896 15.9737C 43.4435 6.35526 34.1711 -0.5 23.2966 -0.5L 23.2966 0.5Z"/>
<path id="path18_fill" fill-rule="evenodd" d="M 0.410818 0.144813C 0.265396 0.231701 0.163599 0.347551 0.0908878 0.492364C 0.0181768 0.622695 -0.0109084 0.78199 0.00363377 0.926803C 0.018176 1.0861 0.0618034 1.23091 0.163599 1.37572C 0.265394 1.52054 0.381731 1.63639 0.51261 1.70879C 0.658032 1.7812 0.803454 1.81016 0.948876 1.81016C 1.10884 1.81016 1.25426 1.75224 1.39968 1.66535C 1.54511 1.56398 1.6469 1.46261 1.71961 1.3178C 1.79233 1.18747 1.82141 1.04266 1.80687 0.883361C 1.79233 0.724066 1.7487 0.579251 1.6469 0.419957C 1.54511 0.275144 1.42877 0.173777 1.29789 0.101371C 1.15247 0.0289644 1.00705 -8.23167e-15 0.861626 -8.23167e-15C 0.701662 -1.64633e-14 0.556239 0.0434439 0.410818 0.144813ZM 0.585321 0.405475C 0.730743 0.318587 0.890709 0.275146 1.05067 0.304108C 1.21064 0.333071 1.32698 0.419957 1.42877 0.56477C 1.51602 0.709583 1.54511 0.854397 1.51602 1.01369C 1.4724 1.1585 1.38514 1.28884 1.23972 1.39021C 1.0943 1.47709 0.934336 1.52054 0.774372 1.49157C 0.614408 1.46261 0.49807 1.37573 0.396275 1.24539C 0.338106 1.15851 0.309021 1.05714 0.309021 0.955767C 0.309021 0.854398 0.323563 0.753029 0.381731 0.666141C 0.425358 0.550291 0.498068 0.477881 0.585321 0.405475Z"/>
<path id="path19_fill" fill-rule="evenodd" d="M -1.77517e-06 1.23091L 0.218131 1.43365L 0.94524 0.68062L 0.974326 2.18668L 1.03249 2.2446L 2.22496 1.01369L 2.00682 0.796473L 1.25063 1.57846L 1.26517 0.0579252L 1.19246 8.83869e-07L -1.77517e-06 1.23091Z"/>
<path id="path20_fill" fill-rule="evenodd" d="M 1.77517e-06 1.41917L 0.53806 1.76672C 0.683482 1.85361 0.843447 1.91153 0.988869 1.92601C 1.14883 1.94049 1.29425 1.91153 1.42513 1.85361C 1.55601 1.79568 1.67235 1.69431 1.7596 1.5495C 1.84686 1.40469 1.89048 1.25987 1.90502 1.11506C 1.90502 0.970246 1.87594 0.825434 1.80323 0.695102C 1.73052 0.56477 1.61418 0.448921 1.46876 0.347551L 0.930701 8.83869e-07L 1.77517e-06 1.41917ZM 1.32334 0.564771C 1.46876 0.66614 1.55601 0.781991 1.5851 0.926804C 1.61418 1.07162 1.5851 1.21643 1.49785 1.36124C 1.39605 1.50606 1.27971 1.57846 1.13429 1.60743C 0.988869 1.63639 0.843447 1.60743 0.698025 1.52054L 0.407181 1.33228L 1.03249 0.376516L 1.32334 0.564771Z"/>
<path id="path21_fill" fill-rule="evenodd" d="M 0.538063 1.14402L 1.22154 1.41917L 1.23609 1.79568L 1.54147 1.91153L 1.43968 0.0289617L 1.38151 1.76774e-06L -8.26628e-15 1.28884L 0.290844 1.40469L 0.538063 1.14402ZM 1.19246 0.521325L 1.207 1.15851L 0.727109 0.970247L 1.19246 0.521325Z"/>
<path id="path22_fill" fill-rule="evenodd" d="M 0 1.67983L 0.639855 1.73776C 0.814362 1.75224 0.974328 1.72328 1.11975 1.66535C 1.26517 1.60743 1.38151 1.50605 1.46876 1.3902C 1.55601 1.27435 1.61418 1.12954 1.62873 0.970247C 1.64327 0.810952 1.61418 0.651657 1.54147 0.521325C 1.46876 0.390994 1.38151 0.275146 1.25063 0.202739C 1.11975 0.115851 0.974326 0.0724074 0.785277 0.0579261L 0.145422 1.76774e-06L 0 1.67983ZM 0.756195 0.318588C 0.930702 0.333069 1.06158 0.405475 1.16337 0.521325C 1.26517 0.637176 1.3088 0.781992 1.29425 0.941287C 1.27971 1.11506 1.207 1.24539 1.09066 1.33228C 0.974326 1.43365 0.828905 1.46261 0.654398 1.46261L 0.31993 1.43365L 0.421723 0.289628L 0.756195 0.318588Z"/>
<path id="path23_fill" fill-rule="evenodd" d="M 0 0.955768C 0.0145422 1.12954 0.0581687 1.27436 0.145422 1.39021C 0.232675 1.52054 0.349012 1.60743 0.494433 1.67983C 0.639855 1.75224 0.799822 1.76672 0.974328 1.76672C 1.14883 1.75224 1.3088 1.70879 1.43968 1.6219C 1.57055 1.53502 1.67235 1.41917 1.74506 1.28884C 1.81777 1.1585 1.84686 0.999208 1.83232 0.825432C 1.81777 0.651657 1.77415 0.506847 1.68689 0.376516C 1.59964 0.246184 1.4833 0.159296 1.33788 0.0868896C 1.19246 0.0144831 1.03249 8.83869e-07 0.857988 8.83869e-07C 0.683482 0.0144822 0.538059 0.0579261 0.407179 0.144814C 0.2763 0.231702 0.174508 0.34755 0.101797 0.477882C 0.0290861 0.651658 0 0.796473 0 0.955768ZM 0.334468 0.941286C 0.319926 0.76751 0.378099 0.608215 0.465352 0.492364C 0.567147 0.376514 0.698025 0.304108 0.872531 0.289627C 1.04704 0.275146 1.19246 0.333071 1.3088 0.43444C 1.42513 0.535809 1.4833 0.680621 1.49784 0.854397C 1.51239 1.02817 1.45422 1.17299 1.35242 1.30332C 1.25063 1.41917 1.11975 1.49157 0.945242 1.50606C 0.828905 1.50606 0.727108 1.49158 0.639855 1.44813C 0.552602 1.40469 0.479891 1.33228 0.421722 1.24539C 0.378096 1.15851 0.334468 1.05714 0.334468 0.941286Z"/>
<path id="path24_fill" fill-rule="evenodd" d="M 0.494435 2.05635L 0.785279 1.96946L 0.479892 0.955766L 1.81777 1.66535L 1.89049 1.63639L 1.39605 -8.83869e-07L 1.1052 0.0868878L 1.42513 1.12954L 0.0872513 0.390996L 1.77517e-06 0.419956L 0.494435 2.05635Z"/>
<path id="path25_fill" fill-rule="evenodd" d="M 0.0838552 1.27791C 0.156566 1.43721 0.258362 1.55306 0.389242 1.63995C 0.520122 1.72683 0.651 1.77028 0.810964 1.78476C 0.970928 1.79924 1.1309 1.77028 1.29086 1.69787C 1.45082 1.62546 1.56716 1.52409 1.66895 1.39376C 1.75621 1.26343 1.81437 1.1331 1.82892 0.973804C 1.84346 0.81451 1.81437 0.669695 1.74166 0.510401C 1.66895 0.351106 1.56716 0.235256 1.43628 0.148368C 1.3054 0.0614803 1.17452 0.0180364 1.01455 0.00355505C 0.85459 -0.0109263 0.694628 0.0180381 0.534664 0.104926C 0.3747 0.177333 0.258362 0.278703 0.171109 0.409034C 0.0838561 0.539366 0.0256865 0.669697 0.0111443 0.828991C -0.01794 0.973804 0.0111443 1.1331 0.0838552 1.27791ZM 0.374699 1.14758C 0.301988 0.988283 0.287448 0.828991 0.345617 0.684178C 0.389244 0.539365 0.491035 0.423512 0.650999 0.351106C 0.810963 0.278699 0.956386 0.278703 1.10181 0.336628C 1.24723 0.394553 1.36357 0.49592 1.43628 0.669696C 1.50899 0.828991 1.52353 0.988287 1.46536 1.1331C 1.40719 1.27791 1.31994 1.39376 1.15998 1.46617C 1.05818 1.50961 0.956389 1.52409 0.854594 1.52409C 0.752798 1.50961 0.650999 1.48065 0.578289 1.40824C 0.491035 1.33584 0.432868 1.24895 0.374699 1.14758Z"/>
<path id="path26_fill" fill-rule="evenodd" d="M 0.959785 1.86219L 1.207 1.68841L 0.930699 1.28293L 1.09066 1.18156C 1.13429 1.1526 1.17792 1.12364 1.207 1.09467L 1.78869 1.31189L 2.07953 1.10916L 1.39605 0.877454C 1.45422 0.776084 1.4833 0.674715 1.46876 0.573345C 1.45422 0.471976 1.42513 0.370611 1.35242 0.269242C 1.25063 0.124428 1.11975 0.037538 0.959785 0.00857539C 0.799821 -0.0203872 0.625314 0.0230567 0.436266 0.153388L 0 0.457497L 0.959785 1.86219ZM 0.59623 0.399572C 0.712568 0.327166 0.814364 0.298202 0.901617 0.312684C 0.98887 0.327165 1.04704 0.38509 1.10521 0.457497C 1.16338 0.529903 1.17792 0.616793 1.16337 0.703681C 1.14883 0.790568 1.09067 0.862972 0.974328 0.94986L 0.785277 1.08019L 0.407179 0.529903L 0.59623 0.399572Z"/>
<path id="path27_fill" fill-rule="evenodd" d="M 0.174507 1.1585L 0.59623 0.78199L 1.55601 1.83913L 1.78869 1.63639L 0.828905 0.579252L 1.25063 0.202737L 1.06158 0L -8.87585e-07 0.955767L 0.174507 1.1585Z"/>
<path id="path28_fill" fill-rule="evenodd" d="M 1.29426 1.95498L 2.02136 1.11506L 1.80323 0.941287L 1.27971 1.5495L 0.974325 1.27435L 1.45422 0.724067L 1.25063 0.55029L 0.770736 1.10058L 0.407181 0.796474L 0.930701 0.188257L 0.727111 1.76774e-06L 1.77517e-06 0.839916L 1.29426 1.95498Z"/>
</defs>
</svg>
