<svg width="89" height="80" viewBox="0 0 89 80" version="1.1" xmlns="http://www.w3.org/2000/svg" xmlns:xlink="http://www.w3.org/1999/xlink">
<title>DeeplyLogo</title>
<desc>Created using Figma</desc>
<g id="Canvas" transform="translate(35434 -3121)">
<g id="DeeplyLogo">
<g id="Vector">
<use xlink:href="#path0_fill" transform="translate(-35434 3121)" fill="#FFFFFF"/>
</g>
</g>
</g>
<defs>
<path id="path0_fill" d="M 35.8105 63.8478C 35.8931 63.7698 35.9963 63.7308 36.0995 63.7308L 39.8766 63.7308C 40.1243 63.7308 40.3307 63.9259 40.3307 64.16C 40.3307 64.277 40.2894 64.3745 40.2069 64.4526L 34.1593 70.1683L 38.5763 70.1683C 38.824 70.1683 39.0304 70.3633 39.0304 70.5974L 39.0304 73.1139C 39.0304 73.348 38.824 73.543 38.5763 73.543L 34.1593 73.543L 40.2275 79.2782C 40.3101 79.3562 40.3513 79.4538 40.3513 79.5513C 40.3513 79.7854 40.1449 79.9805 39.8973 79.9805L 36.1408 79.9805C 36.0169 79.9805 35.8931 79.922 35.8105 79.8439L 29.9281 74.2843C 29.8455 74.2063 29.8043 74.1087 29.8043 73.9917L 29.8043 69.7196C 29.8043 69.6025 29.8662 69.4855 29.9487 69.4075L 35.8105 63.8478ZM 5.16002 63.7308C 10.6503 63.7308 14.4481 67.0666 14.4893 71.8459L 14.4893 71.8654C 14.4481 76.5277 10.898 79.9805 5.16002 79.9805L 0.454083 79.9805C 0.206402 79.9805 -1.25977e-06 79.7854 -1.25977e-06 79.5513L -1.25977e-06 64.1404C -1.25977e-06 63.9064 0.206402 63.7113 0.454083 63.7113L 5.16002 63.7113L 5.16002 63.7308ZM 5.11874 76.6447C 8.68947 76.6447 10.8154 74.9086 10.9186 71.8849C 10.8154 68.9588 8.77203 67.0861 5.11874 67.0861L 3.98353 67.0861C 3.73585 67.0861 3.55009 67.2616 3.52945 67.4762L 3.52945 76.2156C 3.52945 76.4496 3.73585 76.6447 3.98353 76.6447L 5.11874 76.6447ZM 21.8785 63.8478C 21.7959 63.7698 21.6927 63.7308 21.5895 63.7308L 17.8124 63.7308C 17.5647 63.7308 17.3583 63.9259 17.3583 64.16C 17.3583 64.277 17.3996 64.3745 17.4821 64.4526L 23.5297 70.1683L 19.1127 70.1683C 18.865 70.1683 18.6586 70.3633 18.6586 70.5974L 18.6586 73.1139C 18.6586 73.348 18.865 73.543 19.1127 73.543L 23.5297 73.543L 17.4615 79.2782C 17.3996 79.3562 17.3377 79.4538 17.3377 79.5513C 17.3377 79.7854 17.5441 79.9805 17.7917 79.9805L 21.5482 79.9805C 21.6721 79.9805 21.7959 79.922 21.8785 79.8439L 27.7609 74.2843C 27.8435 74.2063 27.8847 74.1087 27.8847 73.9917L 27.8847 69.7196C 27.8847 69.6025 27.8228 69.4855 27.7403 69.4075L 21.8785 63.8478ZM 50.6301 63.7308C 54.5724 63.8088 57.5239 66.0132 57.7303 69.9537C 57.689 73.6601 54.7581 76.1765 50.6301 76.1765L 48.5248 76.1765C 48.2771 76.1765 48.0707 76.3716 48.0707 76.6057L 48.0707 79.5708C 48.0707 79.8049 47.8643 80 47.6166 80L 44.9954 80C 44.7477 80 44.5413 79.8049 44.5413 79.5708L 44.5413 64.16C 44.5413 63.9259 44.7477 63.7308 44.9954 63.7308L 50.6301 63.7308ZM 50.6301 72.8213C 52.4258 72.8213 54.1596 71.9239 54.1596 69.9732C 54.1596 68.7637 53.334 67.1251 50.6301 67.1251L 48.5248 67.1251C 48.2771 67.1251 48.0914 67.3202 48.0707 67.5347L 48.0707 72.4116C 48.0707 72.6457 48.2771 72.8213 48.5248 72.8213L 50.6301 72.8213ZM 65.3878 64.16C 65.3878 63.9259 65.1814 63.7308 64.9337 63.7308L 62.2711 63.7308C 62.0234 63.7308 61.817 63.9259 61.817 64.16L 61.817 79.5708C 61.817 79.8049 62.0234 80 62.2711 80L 71.2908 80C 71.5385 80 71.7449 79.8049 71.7449 79.5708L 71.7449 77.0739C 71.7449 76.8398 71.5385 76.6447 71.3115 76.6447L 65.8625 76.6447C 65.6148 76.6447 65.4084 76.4496 65.4084 76.2156L 65.3878 64.16ZM 89 64.16C 89 63.9259 88.7936 63.7308 88.5459 63.7308L 85.1816 63.7308C 85.0371 63.7308 84.9133 63.8088 84.8307 63.9064L 80.7852 68.8222C 80.7027 68.9003 80.5995 68.9393 80.455 68.9393C 80.3312 68.9393 80.2073 68.9003 80.1248 68.8222L 76.0793 63.9064C 75.9968 63.8088 75.8729 63.7308 75.7284 63.7308L 72.3641 63.7308C 72.1164 63.7308 71.91 63.9259 71.91 64.16C 71.91 64.2575 71.9513 64.3355 71.9926 64.4136L 78.5561 72.4116C 78.618 72.4701 78.6387 72.5677 78.6593 72.6457L 78.6593 79.5513C 78.6593 79.7854 78.8657 79.9805 79.134 79.9805L 81.7553 79.9805C 82.003 79.9805 82.2094 79.7854 82.2094 79.5513L 82.2094 72.6457C 82.2094 72.5482 82.2713 72.4701 82.3333 72.3921L 88.9174 64.3941C 88.9587 64.3355 89 64.2575 89 64.16ZM 45.6765 21.0875C 45.5526 21.1851 45.4907 21.3216 45.4907 21.4777L 45.4907 26.9203C 45.4907 27.0568 45.5526 27.1934 45.6558 27.2909L 53.0656 34.2941C 53.1688 34.3916 53.3133 34.4696 53.4784 34.4696L 58.205 34.4696C 58.5352 34.4696 58.7829 34.216 58.7829 33.9234C 58.7829 33.7869 58.721 33.6698 58.6384 33.5723L 51.0016 26.3545L 56.5538 26.3545C 56.8634 26.3545 57.1317 26.1205 57.1317 25.8083L 57.1317 22.6286C 57.1317 22.336 56.884 22.1019 56.5744 22.0824L 51.0016 22.0824L 58.6384 14.8647C 58.7416 14.7671 58.8036 14.6306 58.8036 14.494C 58.8036 14.2014 58.5559 13.9478 58.2463 13.9478L 53.4784 13.9478C 53.334 13.9478 53.2101 14.0063 53.1069 14.1039L 45.6765 21.0875ZM 35.7899 14.0649C 35.6867 13.9868 35.5628 13.9283 35.4184 13.9088L 30.6505 13.9088C 30.3409 13.9088 30.0932 14.1624 30.0932 14.455C 30.0932 14.5916 30.1551 14.7281 30.2377 14.8257L 37.8745 22.0434L 32.3017 22.0434C 31.9921 22.0434 31.7444 22.2775 31.7238 22.5896L 31.7238 25.7693C 31.7238 26.0619 31.9921 26.3155 32.3017 26.3155L 37.8539 26.3155L 30.2171 33.5333C 30.1345 33.6308 30.0726 33.7479 30.0726 33.8844C 30.0726 34.177 30.3203 34.4306 30.6505 34.4306L 35.3977 34.4306C 35.5628 34.4306 35.7073 34.3721 35.8105 34.2551L 43.2203 27.2519C 43.3235 27.1544 43.3854 27.0373 43.3854 26.8812L 43.3854 21.4387C 43.3854 21.2826 43.3029 21.1461 43.1997 21.0485L 35.7899 14.0649ZM 44.4794 48.3784C 58.5972 48.3589 70.1143 37.3763 70.0937 24.1892C 70.0731 10.8461 58.5972 -2.9766e-07 44.4794 -2.9766e-07C 30.3615 -2.9766e-07 18.865 10.8461 18.865 24.1892C 18.8857 37.5128 30.3615 48.3784 44.4794 48.3784ZM 44.4794 4.17459C 56.1616 4.17459 65.6561 13.148 65.6561 24.1892C 65.6561 35.2304 56.1616 44.2039 44.4794 44.2039C 32.7971 44.2039 23.3026 35.2304 23.3026 24.1892C 23.3026 13.148 32.8177 4.17459 44.4794 4.17459Z"/>
</defs>
</svg>
