<svg width="40" height="40" viewBox="0 0 40 40" version="1.1" xmlns="http://www.w3.org/2000/svg" xmlns:xlink="http://www.w3.org/1999/xlink">
<title>FacebookLogo</title>
<desc>Created using Figma</desc>
<g id="Canvas" transform="translate(35856 -3130)">
<g id="FacebookLogo">
<use xlink:href="#path0_fill" transform="translate(-35856 3130)" fill="#FFFFFF"/>
</g>
</g>
<defs>
<path id="path0_fill" d="M 37.7961 -2.28682e-07L 2.2039 -2.28682e-07C 0.989503 -2.28682e-07 9.1507e-07 0.989135 9.1507e-07 2.20307L 9.1507e-07 37.7819C 9.1507e-07 38.9959 0.989503 39.985 2.2039 39.985L 21.3643 39.985L 21.3643 24.5036L 16.1469 24.5036L 16.1469 18.4638L 21.3643 18.4638L 21.3643 14.0127C 21.3643 8.84226 24.5277 6.03971 29.1304 6.03971C 31.3343 6.03971 33.2384 6.20457 33.7931 6.27951L 33.7931 11.6748L 30.5997 11.6748C 28.096 11.6748 27.6012 12.8587 27.6012 14.6122L 27.6012 18.4638L 33.5832 18.4638L 32.8036 24.5036L 27.6012 24.5036L 27.6012 40L 37.7961 40C 39.0105 40 40 39.0109 40 37.7969L 40 2.20307C 40 0.974148 39.0255 -2.28682e-07 37.7961 -2.28682e-07Z"/>
</defs>
</svg>
