<svg width="40" height="40" viewBox="0 0 40 40" version="1.1" xmlns="http://www.w3.org/2000/svg" xmlns:xlink="http://www.w3.org/1999/xlink">
<title>InstagramLogo</title>
<desc>Created using Figma</desc>
<g id="Canvas" transform="translate(35781 -3130)">
<g id="InstagramLogo">
<g id="Vector">
<use xlink:href="#path0_fill" transform="translate(-35781 3130)" fill="#FFFFFF"/>
</g>
<g id="Vector">
<use xlink:href="#path1_fill" transform="translate(-35771.3 3139.72)" fill="#FFFFFF"/>
</g>
<g id="Vector">
<use xlink:href="#path2_fill" transform="translate(-35752.7 3136.92)" fill="#FFFFFF"/>
</g>
</g>
</g>
<defs>
<path id="path0_fill" d="M 19.9921 3.60389C 25.3333 3.60389 25.9603 3.6277 28.0714 3.72296C 30.0238 3.81028 31.0794 4.13574 31.7857 4.41357C 32.7222 4.77873 33.3889 5.20738 34.0873 5.90593C 34.7857 6.60449 35.2222 7.27128 35.5794 8.20798C 35.8492 8.91447 36.1825 9.97023 36.2698 11.923C 36.3651 14.0345 36.3889 14.6616 36.3889 20.004C 36.3889 25.3463 36.3651 25.9734 36.2698 28.0849C 36.1825 30.0377 35.8571 31.0935 35.5794 31.8C 35.2143 32.7367 34.7857 33.4035 34.0873 34.102C 33.3889 34.8006 32.7222 35.2371 31.7857 35.5944C 31.0794 35.8643 30.0238 36.1977 28.0714 36.285C 25.9603 36.3802 25.3333 36.404 19.9921 36.404C 14.6508 36.404 14.0238 36.3802 11.9127 36.285C 9.96032 36.1977 8.90476 35.8722 8.19841 35.5944C 7.26191 35.2292 6.59524 34.8006 5.89683 34.102C 5.19841 33.4035 4.7619 32.7367 4.40476 31.8C 4.13492 31.0935 3.80159 30.0377 3.71429 28.0849C 3.61905 25.9734 3.59524 25.3463 3.59524 20.004C 3.59524 14.6616 3.61905 14.0345 3.71429 11.923C 3.80159 9.97023 4.12698 8.91447 4.40476 8.20798C 4.76984 7.27128 5.19841 6.60449 5.89683 5.90593C 6.59524 5.20738 7.26191 4.77079 8.19841 4.41357C 8.90476 4.14368 9.96032 3.81028 11.9127 3.72296C 14.0238 3.61977 14.6508 3.60389 19.9921 3.60389ZM 19.9921 -7.57035e-09C 14.5635 -7.57035e-09 13.881 0.0238142 11.746 0.119071C 9.61905 0.214328 8.16667 0.555666 6.89683 1.04783C 5.57937 1.55586 4.46825 2.24648 3.35714 3.35781C 2.24603 4.46914 1.56349 5.58841 1.04762 6.89819C 0.555555 8.16829 0.214286 9.62096 0.119048 11.7563C 0.0238095 13.8837 -7.56884e-09 14.5664 -7.56884e-09 19.996C -7.56884e-09 25.4257 0.0238095 26.1084 0.119048 28.2437C 0.214286 30.3711 0.555555 31.8238 1.04762 33.1018C 1.55556 34.4195 2.24603 35.5309 3.35714 36.6422C 4.46825 37.7535 5.5873 38.4362 6.89683 38.9522C 8.16667 39.4443 9.61905 39.7857 11.754 39.8809C 13.8889 39.9762 14.5635 40 20 40C 25.4365 40 26.1111 39.9762 28.246 39.8809C 30.373 39.7857 31.8254 39.4443 33.1032 38.9522C 34.4206 38.4441 35.5317 37.7535 36.6429 36.6422C 37.754 35.5309 38.4365 34.4116 38.9524 33.1018C 39.4444 31.8317 39.7857 30.379 39.881 28.2437C 39.9762 26.1084 40 25.4336 40 19.996C 40 14.5584 39.9762 13.8837 39.881 11.7484C 39.7857 9.62096 39.4444 8.16829 38.9524 6.89026C 38.4444 5.57253 37.754 4.4612 36.6429 3.34987C 35.5317 2.23854 34.4127 1.55586 33.1032 1.03989C 31.8333 0.547728 30.381 0.20639 28.246 0.111133C 26.1032 0.0238142 25.4206 -7.57035e-09 19.9921 -7.57035e-09Z"/>
<path id="path1_fill" d="M 10.2698 -1.21126e-07C 4.60317 -1.21126e-07 -1.21102e-07 4.59615 -1.21102e-07 10.2719C -1.21102e-07 15.9476 4.60317 20.5438 10.2698 20.5438C 15.9365 20.5438 20.5397 15.9397 20.5397 10.2719C 20.5397 4.60409 15.9365 -1.21126e-07 10.2698 -1.21126e-07ZM 10.2698 16.9399C 6.5873 16.9399 3.60317 13.9551 3.60317 10.2719C 3.60317 6.58861 6.5873 3.60389 10.2698 3.60389C 13.9524 3.60389 16.9365 6.58861 16.9365 10.2719C 16.9365 13.9551 13.9524 16.9399 10.2698 16.9399Z"/>
<path id="path2_fill" d="M 2.39683 4.7946C 3.72056 4.7946 4.79365 3.72129 4.79365 2.3973C 4.79365 1.07331 3.72056 0 2.39683 0C 1.0731 0 0 1.07331 0 2.3973C 0 3.72129 1.0731 4.7946 2.39683 4.7946Z"/>
</defs>
</svg>
