<svg width="31" height="31" viewBox="0 0 31 31" version="1.1" xmlns="http://www.w3.org/2000/svg" xmlns:xlink="http://www.w3.org/1999/xlink">
<title>logo-inst</title>
<desc>Created using Figma</desc>
<g id="Canvas" transform="translate(-6611 -3442)">
<g id="logo-inst">
<g id="Vector">
<use xlink:href="#path0_fill" transform="translate(6611 3442)" fill="#104150"/>
</g>
<g id="Vector">
<use xlink:href="#path1_fill" transform="translate(6618.54 3449.54)" fill="#104150"/>
</g>
<g id="Vector">
<use xlink:href="#path2_fill" transform="translate(6632.91 3447.36)" fill="#104150"/>
</g>
</g>
</g>
<defs>
<path id="path0_fill" d="M 15.4938 2.79301C 19.6333 2.79301 20.1192 2.81147 21.7554 2.88529C 23.2685 2.95297 24.0865 3.2052 24.6339 3.42052C 25.3597 3.70351 25.8764 4.03572 26.4177 4.5771C 26.9589 5.11848 27.2972 5.63525 27.574 6.36118C 27.7831 6.90871 28.0415 7.72693 28.1091 9.24032C 28.1829 10.8768 28.2014 11.3628 28.2014 15.5031C 28.2014 19.6434 28.1829 20.1294 28.1091 21.7658C 28.0415 23.2792 27.7893 24.0974 27.574 24.645C 27.2911 25.3709 26.9589 25.8877 26.4177 26.4291C 25.8764 26.9704 25.3597 27.3088 24.6339 27.5856C 24.0865 27.7948 23.2685 28.0532 21.7554 28.1209C 20.1192 28.1947 19.6333 28.2131 15.4938 28.2131C 11.3544 28.2131 10.8685 28.1947 9.23234 28.1209C 7.71925 28.0532 6.90119 27.801 6.35377 27.5856C 5.62798 27.3026 5.11131 26.9704 4.57004 26.4291C 4.02877 25.8877 3.69048 25.3709 3.41369 24.645C 3.20456 24.0974 2.94623 23.2792 2.87857 21.7658C 2.80476 20.1294 2.78631 19.6434 2.78631 15.5031C 2.78631 11.3628 2.80476 10.8768 2.87857 9.24032C 2.94623 7.72693 3.19841 6.90871 3.41369 6.36118C 3.69663 5.63525 4.02877 5.11848 4.57004 4.5771C 5.11131 4.03572 5.62798 3.69736 6.35377 3.42052C 6.90119 3.21135 7.71925 2.95297 9.23234 2.88529C 10.8685 2.80532 11.3544 2.79301 15.4938 2.79301ZM 15.4938 -5.86702e-09C 11.2867 -5.86702e-09 10.7577 0.018456 9.10317 0.0922802C 7.45476 0.166104 6.32917 0.430641 5.34504 0.812066C 4.32401 1.20579 3.4629 1.74102 2.60179 2.6023C 1.74067 3.46358 1.21171 4.33102 0.811905 5.3461C 0.430555 6.33042 0.166071 7.45624 0.0922619 9.11113C 0.0184524 10.7599 -5.86585e-09 11.2889 -5.86585e-09 15.4969C -5.86585e-09 19.7049 0.0184524 20.234 0.0922619 21.8889C 0.166071 23.5376 0.430555 24.6634 0.811905 25.6539C 1.20556 26.6751 1.74067 27.5364 2.60179 28.3977C 3.4629 29.259 4.33016 29.7881 5.34504 30.1879C 6.32917 30.5694 7.45476 30.8339 9.10932 30.9077C 10.7639 30.9815 11.2867 31 15.5 31C 19.7133 31 20.2361 30.9815 21.8907 30.9077C 23.5391 30.8339 24.6647 30.5694 25.655 30.1879C 26.676 29.7942 27.5371 29.259 28.3982 28.3977C 29.2593 27.5364 29.7883 26.669 30.1881 25.6539C 30.5694 24.6696 30.8339 23.5438 30.9077 21.8889C 30.9815 20.234 31 19.7111 31 15.4969C 31 11.2828 30.9815 10.7599 30.9077 9.10498C 30.8339 7.45624 30.5694 6.33042 30.1881 5.33995C 29.7944 4.31871 29.2593 3.45743 28.3982 2.59615C 27.5371 1.73487 26.6698 1.20579 25.655 0.805914C 24.6708 0.424489 23.5452 0.159952 21.8907 0.0861282C 20.23 0.018456 19.701 -5.86702e-09 15.4938 -5.86702e-09Z"/>
<path id="path1_fill" d="M 7.95913 -9.38723e-08C 3.56746 -9.38723e-08 -9.38537e-08 3.56202 -9.38537e-08 7.96071C -9.38537e-08 12.3594 3.56746 15.9214 7.95913 15.9214C 12.3508 15.9214 15.9183 12.3532 15.9183 7.96071C 15.9183 3.56817 12.3508 -9.38723e-08 7.95913 -9.38723e-08ZM 7.95913 13.1284C 5.10516 13.1284 2.79246 10.8152 2.79246 7.96071C 2.79246 5.10617 5.10516 2.79301 7.95913 2.79301C 10.8131 2.79301 13.1258 5.10617 13.1258 7.96071C 13.1258 10.8152 10.8131 13.1284 7.95913 13.1284Z"/>
<path id="path2_fill" d="M 1.85754 3.71582C 2.88343 3.71582 3.71508 2.884 3.71508 1.85791C 3.71508 0.831814 2.88343 0 1.85754 0C 0.831649 0 0 0.831814 0 1.85791C 0 2.884 0.831649 3.71582 1.85754 3.71582Z"/>
</defs>
</svg>
