<svg width="70" height="40" viewBox="0 0 70 40" version="1.1" xmlns="http://www.w3.org/2000/svg" xmlns:xlink="http://www.w3.org/1999/xlink">
<title>TripAdvisorLogo</title>
<desc>Created using Figma</desc>
<g id="Canvas" transform="translate(35625 -3130)">
<g id="TripAdvisorLogo">
<g id="Group">
<g id="Vector">
<use xlink:href="#path0_fill" transform="translate(-35610.7 3150.06)" fill="#FFFFFF"/>
</g>
</g>
<g id="Group">
<g id="Vector">
<use xlink:href="#path1_fill" transform="translate(-35575.5 3150.06)" fill="#FFFFFF"/>
</g>
</g>
<g id="Group">
<g id="Vector">
<use xlink:href="#path2_fill" transform="translate(-35625 3130)" fill="#FFFFFF"/>
</g>
</g>
<g id="Group">
<g id="Vector">
<use xlink:href="#path3_fill" transform="translate(-35616.4 3144.51)" fill="#FFFFFF"/>
</g>
</g>
<g id="Group">
<g id="Vector">
<use xlink:href="#path4_fill" transform="translate(-35581.2 3144.51)" fill="#FFFFFF"/>
</g>
</g>
</g>
</g>
<defs>
<path id="path0_fill" d="M 5.91377 2.84556C 5.91377 4.41061 4.58317 5.69111 2.95689 5.69111C 1.3306 5.69111 -2.81991e-07 4.41061 -2.81991e-07 2.84556C -2.81991e-07 1.2805 1.3306 0 2.95689 0C 4.58317 0 5.91377 1.2805 5.91377 2.84556Z"/>
<path id="path1_fill" d="M 5.91377 2.84556C 5.91377 4.41061 4.58317 5.69111 2.95689 5.69111C 1.3306 5.69111 0 4.41061 0 2.84556C 0 1.2805 1.3306 0 2.95689 0C 4.58317 0 5.91377 1.2805 5.91377 2.84556Z"/>
<path id="path2_fill" d="M 66.53 13.0896C 67.417 9.67489 69.9304 6.4025 69.9304 6.4025L 58.2507 6.4025C 51.7455 2.27644 43.7619 8.48042e-09 34.8913 8.48042e-09C 25.7249 8.48042e-09 17.4456 2.27644 10.9405 6.4025L 0 6.4025C 0 6.4025 2.6612 9.67489 3.40042 13.0896C 1.3306 15.9351 0 19.3498 0 23.049C 0 32.2971 7.83575 39.9801 17.5935 39.9801C 23.0637 39.9801 28.0904 37.5613 31.1952 33.5776L 34.8913 38.9841L 38.5874 33.5776C 40.2137 35.7117 42.4313 37.2768 45.0925 38.415C 49.38 40.2646 54.111 40.5492 58.5464 38.9841C 67.5649 35.7117 72.2959 26.0368 68.8955 17.3579C 68.3041 15.6506 67.5649 14.3701 66.53 13.0896ZM 51.8934 6.26022C 50.1192 6.26022 48.1973 6.68706 46.4231 7.25617C 41.9878 8.82122 38.5874 11.9513 36.5176 16.0774C 35.6305 17.927 35.187 19.9189 35.0391 21.9108C 34.4477 13.2318 27.0555 6.4025 17.8892 6.26022C 22.9159 4.12606 28.6818 3.13011 34.8913 3.13011C 41.2486 2.98783 46.8667 4.12606 51.8934 6.26022ZM 17.5935 36.5654C 9.90557 36.5654 3.54826 30.5897 3.54826 23.049C 3.54826 15.6506 9.75773 9.53261 17.5935 9.53261C 25.2814 9.53261 31.6387 15.5083 31.6387 23.049C 31.4908 30.4475 25.2814 36.5654 17.5935 36.5654ZM 57.3636 35.7117C 53.8153 36.9922 50.1192 36.85 46.7188 35.2849C 43.3184 33.7198 40.805 31.1588 39.4744 27.7442C 38.1438 24.3295 38.2917 20.7726 39.918 17.5002C 41.5443 14.2278 44.2055 11.8091 47.7537 10.5286C 54.9981 7.96756 63.1295 11.5245 65.7907 18.4961C 68.3041 25.4677 64.608 33.1507 57.3636 35.7117Z"/>
<path id="path3_fill" d="M 8.72282 5.42747e-07C 3.9918 5.42747e-07 2.81991e-07 3.69922 2.81991e-07 8.39439C 2.81991e-07 12.9473 3.84395 16.7888 8.72282 16.7888C 13.4538 16.7888 17.4456 13.0896 17.4456 8.39439C 17.4456 3.8415 13.4538 5.42747e-07 8.72282 5.42747e-07ZM 8.72282 13.8009C 5.61808 13.8009 3.10473 11.3822 3.10473 8.39439C 3.10473 5.40656 5.61808 2.98783 8.72282 2.98783C 11.8275 2.98783 14.3409 5.40656 14.3409 8.39439C 14.3409 11.3822 11.8275 13.8009 8.72282 13.8009Z"/>
<path id="path4_fill" d="M 8.72282 5.42747e-07C 3.9918 5.42747e-07 5.63981e-07 3.69922 5.63981e-07 8.39439C 5.63981e-07 12.9473 3.84395 16.7888 8.72282 16.7888C 13.4538 16.7888 17.4456 13.0896 17.4456 8.39439C 17.2978 3.8415 13.4538 5.42747e-07 8.72282 5.42747e-07ZM 8.72282 13.8009C 5.61809 13.8009 3.10473 11.3822 3.10473 8.39439C 3.10473 5.40656 5.61809 2.98783 8.72282 2.98783C 11.8275 2.98783 14.3409 5.40656 14.3409 8.39439C 14.3409 11.3822 11.8275 13.8009 8.72282 13.8009Z"/>
</defs>
</svg>
