<svg width="46" height="40" viewBox="0 0 46 40" version="1.1" xmlns="http://www.w3.org/2000/svg" xmlns:xlink="http://www.w3.org/1999/xlink">
<title>VimeoLogo</title>
<desc>Created using Figma</desc>
<g id="Canvas" transform="translate(35706 -3130)">
<g id="VimeoLogo">
<g id="Group">
<g id="Vector">
<use xlink:href="#path0_fill" transform="translate(-35706 3130)" fill="#FFFFFF"/>
</g>
</g>
</g>
</g>
<defs>
<path id="path0_fill" fill-rule="evenodd" d="M 39.1383 0.00672588C 32.768 -0.177151 28.5059 3.40845 26.2144 10.8555C 27.3601 10.3498 28.5059 10.12 29.6058 10.12C 31.9431 10.12 32.9513 11.4531 32.6763 14.0733C 32.5389 15.6822 31.5306 17.9807 29.6058 21.0607C 27.6809 24.1406 26.2602 25.6576 25.2978 25.6576C 24.0604 25.6576 22.9147 23.3132 21.9064 18.5783C 21.5398 17.1992 20.944 13.6596 20.0733 7.95941C 19.2483 2.71891 17.0485 0.236572 13.4738 0.604326C 11.9615 0.742234 9.71583 2.12131 6.69109 4.74156C 4.49128 6.76421 2.24564 8.74089 0 10.7635L 2.15398 13.5677C 4.2163 12.0966 5.40787 11.4071 5.72867 11.4071C 7.28687 11.4071 8.75341 13.8894 10.1283 18.8541C 11.3657 23.4051 12.6031 27.9561 13.8405 32.553C 15.6736 37.5177 17.9651 40 20.6232 40C 24.9312 40 30.2016 35.9087 36.4344 27.7262C 42.438 19.9114 45.5544 13.7515 45.7835 9.24655C 46.0585 3.22457 43.8587 0.144634 39.1383 0.00672588Z"/>
</defs>
</svg>
