<svg width="154" height="31" viewBox="0 0 154 31" version="1.1" xmlns="http://www.w3.org/2000/svg" xmlns:xlink="http://www.w3.org/1999/xlink">
<title>with locals</title>
<desc>Created using Figma</desc>
<g id="Canvas" transform="translate(35666 -3296)">
<g id="with locals">
<g id="Group">
<g id="Group">
<g id="Vector">
<use xlink:href="#path0_fill" transform="translate(-35634.1 3305.11)" fill="#FFFFFF"/>
</g>
<g id="Vector">
<use xlink:href="#path1_fill" transform="translate(-35666 3297.97)" fill="#FFFFFF"/>
</g>
<g id="Vector">
<use xlink:href="#path2_fill" transform="translate(-35602.5 3296)" fill="#FFFFFF"/>
</g>
</g>
<g id="Vector">
<use xlink:href="#path3_fill" transform="translate(-35531.9 3311.39)" fill="#FFFFFF"/>
</g>
<g id="Vector">
<use xlink:href="#path4_fill" transform="translate(-35533.4 3305.38)" fill="#FFFFFF"/>
</g>
<g id="Vector">
<use xlink:href="#path5_fill" transform="translate(-35524.7 3307.17)" fill="#FFFFFF"/>
</g>
<g id="Vector">
<use xlink:href="#path6_fill" transform="translate(-35530.9 3323.03)" fill="#09B4EB"/>
</g>
<g id="Vector">
<use xlink:href="#path7_fill" transform="translate(-35538.5 3296.19)" fill="#FFFFFF"/>
</g>
</g>
</g>
</g>
<defs>
<path id="path0_fill" d="M 0.622596 3.69154C 1.01919 3.98519 1.62712 4.08597 2.44529 3.99172C 2.91849 3.93888 3.32051 3.8261 3.65843 3.66267C 3.99472 3.49759 4.26962 3.2982 4.48693 3.06884C 4.70696 2.83893 4.86179 2.58451 4.9585 2.31157C 5.0514 2.03645 5.09757 1.75751 5.08997 1.48021C 5.08345 1.17731 5.01228 0.921796 4.88515 0.714228C 4.75368 0.506661 4.57712 0.346491 4.36252 0.235897C 4.1463 0.126393 3.89421 0.0533896 3.60465 0.0196122C 3.47263 0.00708187 3.3379 -9.97552e-08 3.19882 -9.97552e-08C 3.03095 -9.97552e-08 2.85873 0.0103513 2.68108 0.0315984C 2.16551 0.09425 1.73034 0.215195 1.38427 0.398791C 1.04092 0.586746 0.766021 0.794313 0.565552 1.0264C 0.361279 1.26175 0.212965 1.50037 0.126584 1.74989C 0.0396597 1.99777 -4.80806e-07 2.21514 -4.80806e-07 2.40419C 0.0173844 2.9686 0.221114 3.39626 0.622596 3.69154Z"/>
<path id="path1_fill" d="M 61.0335 20.2185C 60.7417 20.2708 60.5364 20.5023 60.2897 20.6047C 60.0403 20.7088 59.804 20.7714 59.5802 20.7878C 59.4042 20.8014 59.2526 20.7121 59.1314 20.5198C 59.0119 20.3269 58.944 20.0621 58.9326 19.7287C 58.9114 19.1147 58.9728 18.5225 59.1244 17.945C 59.2743 17.3681 59.4438 16.8021 59.6323 16.2436C 59.8247 15.6809 59.9925 15.1241 60.1479 14.5689C 60.3022 14.0122 60.3707 13.4461 60.3473 12.8779C 60.3359 12.5919 60.2859 12.3614 60.1952 12.1882C 60.1039 12.0149 59.9925 11.8842 59.8654 11.7932C 59.7361 11.7039 59.5987 11.6456 59.4596 11.62C 59.3172 11.5976 59.1939 11.5867 59.0787 11.5976C 58.6338 11.6347 58.1639 11.827 57.6678 12.1691C 57.1724 12.5129 56.6736 12.9291 56.1804 13.4249C 55.6865 13.9185 55.2101 14.4425 54.7553 15.0042C 54.299 15.5637 53.8883 16.0862 53.5216 16.5716C 53.4238 16.5226 53.3298 16.4714 53.2331 16.4229C 53.533 15.8672 53.8769 15.226 54.268 14.4949C 54.6543 13.7643 55.0487 12.9885 55.4496 12.1691C 55.8484 11.3459 56.2374 10.5009 56.6155 9.63091C 56.9909 8.75978 57.3245 7.90554 57.6151 7.06165C 57.9031 6.2194 58.1291 5.41364 58.297 4.63949C 58.4621 3.86751 58.5349 3.16962 58.5067 2.55128C 58.4947 2.13124 58.4453 1.75479 58.3573 1.42464C 58.2698 1.09232 58.1258 0.815015 57.9281 0.58947C 57.7303 0.367738 57.4674 0.202664 57.1468 0.102422C 56.9317 0.0337774 56.6774 -3.74082e-08 56.3857 -3.74082e-08C 56.2385 -3.74082e-08 56.0798 0.00871663 55.9131 0.0261501C 54.9525 0.123669 54.1132 0.45436 53.3912 1.01387C 52.6697 1.5761 52.0476 2.29577 51.5266 3.17126C 51.004 4.04893 50.5667 5.04645 50.219 6.16219C 49.8702 7.27848 49.5866 8.44162 49.3709 9.6527C 49.1558 10.8621 48.9966 12.0798 48.8966 13.3077C 48.7978 14.5357 48.7288 15.7027 48.6891 16.8053C 48.6603 17.5937 48.6473 18.3286 48.6483 19.015C 48.5277 19.1289 48.4077 19.2438 48.2773 19.3566C 47.9361 19.6524 47.5852 19.9352 47.2114 20.2054C 46.8403 20.4773 46.4671 20.7311 46.0863 20.9659C 45.7054 21.2002 45.3403 21.4083 44.9921 21.5865C 44.6455 21.763 44.3266 21.9068 44.0348 22.0185C 43.7426 22.128 43.4981 22.1939 43.2992 22.2119C 42.9847 22.2408 42.6951 22.2261 42.4333 22.1618C 42.173 22.1024 41.9535 21.9814 41.7683 21.8033C 41.583 21.629 41.4412 21.3914 41.3396 21.0956C 41.2386 20.7998 41.181 20.4282 41.1663 19.9837C 41.1642 19.8093 41.1604 19.6187 41.1604 19.4122C 41.1587 19.2046 41.1587 18.9911 41.1642 18.7644C 41.1642 18.5421 41.1663 18.3166 41.1712 18.0878C 41.1772 17.859 41.1772 17.6405 41.1821 17.4226C 41.1957 16.9257 41.2136 16.4185 41.2364 15.9031C 41.4624 15.6237 41.708 15.3099 41.9747 14.9634C 42.2388 14.6163 42.5012 14.2655 42.7603 13.907C 44.5499 13.7218 45.2013 13.658 46.9908 13.4826C 47.2103 13.4608 47.4118 13.3486 47.5938 13.1487C 47.7758 12.9482 47.8584 12.703 47.8503 12.4115C 47.841 12.1713 47.7938 11.9741 47.7063 11.8253C 47.6178 11.6766 47.4781 11.6069 47.2934 11.6145C 47.1342 11.6249 47.0484 11.6249 46.8083 11.639C 46.566 11.657 45.2366 11.7071 44.9823 11.724C 44.727 11.742 44.865 11.7327 44.6732 11.748C 44.4743 11.7654 44.3369 11.7747 44.2543 11.7747C 44.5743 11.2669 44.7639 10.7238 45.0518 10.2122C 45.3392 9.70064 45.5843 9.19943 45.7961 8.70748C 46.0053 8.21607 46.1683 7.73611 46.2829 7.27249C 46.3959 6.80723 46.4481 6.37139 46.4361 5.96497C 46.422 5.48392 46.3465 5.02684 46.2063 4.59808C 46.0662 4.16933 45.8776 3.80104 45.6391 3.49541C 45.3936 3.19142 45.1067 2.95715 44.771 2.79481C 44.5107 2.66841 44.232 2.60467 43.93 2.60467C 43.8469 2.60467 43.761 2.60957 43.6741 2.61884C 43.0569 2.68857 42.5848 3.03833 42.0339 3.59293C 41.4852 4.14808 40.9811 4.85904 40.5269 5.72254C 40.0738 6.59095 39.6691 7.56668 39.3127 8.65246C 38.9557 9.73606 38.6673 10.6154 38.4456 11.7556C 38.426 11.8025 38.3891 11.8025 38.2391 11.8025L 38.1055 11.8079C 38.0821 11.8079 35.3185 11.8651 35.1479 12.6562C 34.9773 13.4478 35.5054 13.6363 36.9722 13.6994C 37.359 13.7316 37.9941 13.7719 38.1055 13.7741C 38.0381 14.3347 37.9805 15.1263 37.948 15.6923C 37.917 16.2556 37.9099 16.7863 37.9213 17.2793C 37.9512 18.3929 38.0512 19.3947 38.2169 20.2991C 37.9968 20.4903 37.7643 20.6935 37.5063 20.9273C 37.1086 21.2814 36.7049 21.6251 36.2904 21.9591C 35.8797 22.2942 35.4701 22.5862 35.0648 22.833C 34.6551 23.0819 34.2835 23.2225 33.9456 23.2563C 33.655 23.2895 33.4621 23.1991 33.3638 22.9915C 33.2633 22.7828 33.21 22.4968 33.2019 22.1264C 33.1926 21.7515 33.2301 21.3201 33.3122 20.839C 33.3931 20.359 33.5034 19.8622 33.6267 19.3533C 33.7533 18.8418 33.8935 18.3297 34.0429 17.8159C 34.1896 17.3016 34.3259 16.8239 34.4558 16.3755C 34.5872 15.9304 34.6959 15.5332 34.7779 15.1802C 34.8665 14.8294 34.9056 14.563 34.9007 14.3843C 34.8936 14.1707 34.8214 14.0083 34.6796 13.8967C 34.5775 13.8171 34.4134 13.7763 34.1852 13.7774C 34.0934 13.7774 33.9918 13.7839 33.8793 13.7964C 33.6642 13.8198 33.4279 13.87 33.1638 13.9441C 32.9004 14.0203 32.6434 14.1179 32.3978 14.2415C 32.1566 14.3641 31.9366 14.5106 31.7437 14.685C 31.553 14.8571 31.427 15.056 31.3667 15.2755C 31.2097 15.9075 31.032 16.6021 30.8278 17.3534C 30.6289 18.1036 30.4333 18.8559 30.2535 19.6116C 30.2497 19.6285 30.2464 19.6448 30.2426 19.6612C 30.1535 19.7549 30.065 19.8486 29.9705 19.9319C 29.7097 20.1575 29.4419 20.3383 29.1588 20.4794C 28.8758 20.6227 28.5998 20.7083 28.3265 20.7388C 28.0543 20.7709 27.8006 20.7665 27.5599 20.7262C 27.322 20.6897 27.1155 20.6069 26.9373 20.4794C 26.7635 20.3541 26.6206 20.1825 26.5136 19.9706C 26.4087 19.7565 26.3517 19.4928 26.343 19.1757C 26.3408 19.045 26.3962 18.7328 26.5027 18.2403C 26.6103 17.7467 26.7445 17.1393 26.9026 16.418C 27.0618 15.6961 27.2313 14.8882 27.4165 13.9936C 27.5985 13.0964 27.768 12.1784 27.9239 11.2375C 28.075 10.2956 28.2043 9.36069 28.2988 8.428C 28.4004 7.4964 28.4417 6.63834 28.4259 5.84621C 28.4172 5.56183 28.3743 5.33301 28.2988 5.15868C 28.2233 4.98434 28.1103 4.85141 27.9717 4.7588C 27.8321 4.66836 27.6664 4.6117 27.4752 4.58827C 27.4008 4.58119 27.3242 4.57683 27.2427 4.57683C 27.1177 4.57683 26.983 4.58664 26.8412 4.60462C 26.5467 4.64057 26.2577 4.70323 25.9757 4.7844C 25.6949 4.86394 25.4422 4.99088 25.2276 5.15595C 25.0038 5.3232 24.8256 5.54221 24.6876 5.81189C 24.548 6.08374 24.4643 6.42751 24.4464 6.84428C 24.4274 7.24634 24.3877 7.80312 24.3307 8.51244C 24.2709 9.22613 24.1878 10.0281 24.0851 10.9248C 23.9776 11.8215 23.8417 12.7749 23.6771 13.7872C 23.5152 14.8016 23.3175 15.8094 23.0822 16.814C 22.853 17.8176 22.5841 18.7846 22.2749 19.7145C 21.9696 20.6445 21.6165 21.4737 21.2221 22.1961C 20.8238 22.9218 20.3843 23.5167 19.9003 23.9781C 19.4124 24.4412 18.8702 24.7076 18.2704 24.7773C 17.9255 24.822 17.6332 24.7463 17.393 24.5551C 17.1578 24.3666 16.966 24.0729 16.815 23.6796C 16.6661 23.2857 16.5569 22.8008 16.4869 22.2195C 16.4179 21.6437 16.3825 20.9915 16.3738 20.2659C 16.3657 19.5571 16.3901 18.7731 16.4548 17.9167C 16.5189 17.0608 16.602 16.1908 16.7074 15.3099C 16.815 14.4273 16.9323 13.5676 17.0551 12.727C 17.1817 11.8836 17.2985 11.1324 17.4044 10.4683C 17.5109 9.80361 17.6027 9.25936 17.6712 8.83278C 17.7396 8.40839 17.7733 8.1665 17.7733 8.11038C 17.7701 7.94095 17.7391 7.79113 17.6826 7.66038C 17.6261 7.53235 17.5294 7.42939 17.393 7.35094C 17.2578 7.27249 17.0769 7.22018 16.8508 7.19567C 16.6238 7.16897 16.3331 7.18314 15.9805 7.22999C 15.6095 7.28338 15.2867 7.36401 15.001 7.47515C 14.7239 7.58738 14.4729 7.74809 14.2632 7.95457C 14.0535 8.16214 13.871 8.42364 13.7248 8.74289C 13.5749 9.05996 13.4467 9.45004 13.3386 9.90712C 12.7611 12.7281 12.0928 15.2701 11.3284 17.5245C 11.1117 18.1651 10.8802 18.8015 10.6347 19.4302C 10.3869 20.0632 10.1234 20.6685 9.84202 21.2454C 9.56277 21.8245 9.26723 22.3677 8.96463 22.8733C 8.65985 23.3778 8.3404 23.8185 8.00791 24.2015C 7.67217 24.5801 7.32175 24.8923 6.96428 25.126C 6.6068 25.3673 6.23411 25.5134 5.85273 25.5662C 5.46918 25.6136 5.13398 25.5558 4.8531 25.387C 4.57168 25.2159 4.33753 24.9626 4.14793 24.6264C 3.95452 24.2881 3.81761 23.8784 3.72634 23.3979C 3.6367 22.9212 3.58672 22.3988 3.584 21.8327C 3.584 21.1403 3.65898 20.3792 3.80946 19.5484C 3.95887 18.7181 4.14847 17.8671 4.37719 16.9966C 4.60537 16.126 4.85256 15.2641 5.12039 14.412C 5.3866 13.5622 5.63488 12.7706 5.86034 12.0422C 6.09123 11.3149 6.2792 10.6742 6.43024 10.1201C 6.57855 9.56662 6.6557 9.15585 6.65407 8.8829C 6.65407 8.64428 6.61821 8.4596 6.55954 8.32667C 6.50032 8.19864 6.40796 8.10548 6.29605 8.04392C 6.17924 7.98671 6.03962 7.95784 5.86903 7.95784C 5.70279 7.95893 5.51916 7.97582 5.31489 8.00687C 5.06552 8.04283 4.81942 8.09404 4.5744 8.15451C 4.32721 8.21553 4.08708 8.32503 3.84749 8.48466C 3.60682 8.64755 3.37158 8.87146 3.14069 9.16729C 2.91034 9.45712 2.67673 9.85155 2.44801 10.3495C 2.05957 11.2337 1.71458 12.1359 1.40981 13.0577C 1.1072 13.9773 0.8486 14.8969 0.642154 15.816C 0.435165 16.7356 0.275442 17.6481 0.16244 18.5498C 0.052698 19.453 1.03622e-09 20.3269 1.03622e-09 21.1653C 0.00325967 22.5409 0.13256 23.7242 0.39116 24.7174C 0.65139 25.71 0.994198 26.5201 1.4223 27.1488C 1.84932 27.7732 2.34424 28.2237 2.90925 28.4961C 3.47372 28.7669 4.06317 28.8633 4.6836 28.7849C 5.75929 28.6438 6.74208 28.3621 7.62871 27.9263C 8.51099 27.498 9.29385 26.8694 9.97512 26.0325C 10.658 25.2034 11.2475 24.1367 11.7446 22.8373C 12.2411 21.5391 12.6513 19.9526 12.9648 18.0763C 12.9403 18.3455 12.9088 18.6516 12.8626 18.9954C 12.8241 19.3381 12.8002 19.7047 12.8056 20.0915C 12.817 21.1441 12.9153 22.1231 13.1022 23.0334C 13.2913 23.9454 13.5814 24.7234 13.9785 25.3646C 14.3746 26.0118 14.8874 26.4973 15.5149 26.8258C 16.1451 27.1543 16.9041 27.2687 17.794 27.163C 18.497 27.0813 19.1788 26.8873 19.8362 26.5801C 20.4946 26.2712 21.1216 25.8724 21.7175 25.3788C 22.3173 24.8852 22.8791 24.3028 23.4071 23.636C 23.9368 22.9686 24.4258 22.232 24.8799 21.4225C 24.9435 21.8055 25.0489 22.1313 25.1929 22.3993C 25.3379 22.6684 25.5194 22.8825 25.7324 23.0367C 25.9459 23.192 26.1931 23.2982 26.4641 23.3527C 26.7336 23.4083 27.0275 23.4186 27.3361 23.3859C 27.9821 23.3146 28.6709 23.0411 29.3989 22.56C 29.5049 22.4897 29.6108 22.4097 29.7162 22.3323C 29.6554 22.8035 29.6266 23.229 29.6353 23.6028C 29.6412 23.9699 29.6934 24.3039 29.7901 24.5976C 29.8863 24.8945 30.0373 25.1402 30.2497 25.3308C 30.4594 25.5221 30.7316 25.6604 31.0673 25.7438C 31.4053 25.8266 31.8165 25.844 32.3038 25.7912C 32.8439 25.7345 33.417 25.5902 34.0179 25.3565C 34.6177 25.1233 35.2066 24.8465 35.7792 24.5305C 36.3567 24.2135 36.8869 23.8741 37.3797 23.5156C 37.7252 23.2655 38.3489 22.7801 38.808 22.4058C 38.9204 22.6782 39.0389 22.9392 39.1714 23.1718C 39.5577 23.8506 40.0254 24.3508 40.579 24.6809C 41.1343 25.0089 41.7683 25.1396 42.4783 25.0737C 42.8288 25.041 43.2107 24.9473 43.6339 24.7915C 44.0577 24.6357 44.5406 24.4199 45.0796 24.1383C 45.6217 23.855 46.2384 23.5085 46.9305 23.0977C 47.4629 22.7785 48.0529 22.42 48.6994 22.0234C 48.7125 22.3655 48.7364 22.6995 48.776 23.0253C 48.8146 23.3532 48.8863 23.6469 48.9895 23.8997C 49.0949 24.153 49.2345 24.3518 49.4165 24.4946C 49.6023 24.6384 49.8457 24.6956 50.1597 24.6689C 50.3912 24.6488 50.5808 24.5877 50.7296 24.4837C 50.8769 24.3785 51.0073 24.2314 51.1279 24.0408C 51.2485 23.8506 51.3702 23.6104 51.4935 23.32C 51.6157 23.0318 51.77 22.6891 51.9602 22.2969C 52.3481 21.5004 52.7811 20.7273 53.264 19.9684C 53.7492 19.2095 54.2169 18.5263 54.6738 17.9124C 55.1291 17.2967 55.5382 16.7846 55.9016 16.3766C 56.2646 15.9691 56.5248 15.7103 56.6796 15.6008C 56.7785 15.6084 56.8779 15.6122 56.9752 15.6166C 56.9458 15.6444 56.8926 15.7403 56.8035 15.907C 56.7182 16.0748 56.615 16.2889 56.4976 16.5515C 56.3803 16.8124 56.257 17.1104 56.1249 17.4406C 55.9924 17.7702 55.8729 18.109 55.7707 18.4533C 55.667 18.7971 55.5784 19.1376 55.5099 19.4748C 55.4464 19.811 55.416 20.1155 55.4279 20.3814C 55.4426 20.7834 55.5186 21.2062 55.6561 21.6475C 55.7941 22.0904 55.9935 22.4914 56.2532 22.8531C 56.5107 23.2127 56.8312 23.5041 57.2234 23.7204C 57.6092 23.9384 58.0628 24.0277 58.5762 23.9863C 58.9152 23.9607 59.2667 23.8839 59.6334 23.7553C 59.9996 23.6267 60.3761 23.4905 60.726 23.2884C 62.2428 22.402 62.2428 20.0038 61.0335 20.2185ZM 41.5977 9.66523C 41.7797 8.93411 41.9731 8.26075 42.1855 7.64567C 42.3963 7.02951 42.6174 6.51849 42.8499 6.11261C 43.0863 5.7062 43.3253 5.48719 43.5644 5.46158C 43.7382 5.44143 43.7627 5.42454 43.8648 5.48011C 43.9626 5.53513 44.0381 5.60922 44.0881 5.70293C 44.137 5.79718 44.1701 5.8996 44.1853 6.01019C 44.2005 6.12133 44.2125 6.22103 44.2157 6.31147C 44.225 6.57733 44.1582 6.92654 44.012 7.35366C 43.8648 7.78405 43.6795 8.25039 43.4497 8.75433C 43.2226 9.25445 42.9678 9.76602 42.6804 10.2917C 42.3914 10.8131 42.2279 11.3356 41.9595 11.7856C 41.8123 11.7856 41.664 11.7883 41.5292 11.7899C 41.457 11.791 41.3869 11.7921 41.3163 11.7921C 41.2462 11.7921 41.1766 11.791 41.1066 11.7899C 41.2543 11.1062 41.4195 10.3958 41.5977 9.66523ZM 52.3285 13.8547C 52.0509 14.5003 51.7977 15.0947 51.5641 15.6433C 51.6184 14.6839 51.7059 13.7038 51.8276 12.6981C 51.8787 12.265 51.9374 11.8112 52.0118 11.3318C 52.084 10.854 52.1661 10.3637 52.253 9.86735C 52.3421 9.36832 52.4464 8.86765 52.5654 8.36208C 52.6844 7.85651 52.8131 7.36674 52.9538 6.89276C 53.5444 5.47847 54.0627 4.39269 54.5103 3.63543C 54.9558 2.87761 55.2986 2.48754 55.5404 2.46302C 55.7251 2.44287 55.8261 2.75395 55.8522 3.38863C 55.8663 3.80486 55.7664 4.46678 55.554 5.36624C 55.3415 6.26897 54.9841 7.38635 54.481 8.71565C 54.3299 9.10682 54.1333 9.58515 53.8991 10.1468C 53.6601 10.7107 53.4102 11.3067 53.1413 11.9376C 52.8767 12.5701 52.6045 13.2097 52.3285 13.8547Z"/>
<path id="path2_fill" d="M 60.2807 15.3992C 60.4763 15.1546 60.6501 14.9034 60.8066 14.6387C 60.9609 14.3772 61.0293 14.1386 61.0152 13.9234C 61.0054 13.8149 60.988 13.6886 60.9538 13.5382C 60.9261 13.3922 60.849 13.2527 60.7262 13.1192C 60.6072 12.9858 60.4219 12.8741 60.1731 12.7847C 59.9417 12.6997 59.6298 12.6573 59.2311 12.6573C 59.1985 12.6573 59.1664 12.6578 59.1322 12.6583C 58.8633 12.6627 58.6248 12.7063 58.4162 12.7847C 58.2032 12.8637 58.0098 12.9667 57.8397 13.0915C 57.6697 13.2135 57.5138 13.353 57.3785 13.5099C 57.24 13.6619 57.1199 13.8204 57.0129 13.9822C 56.4723 14.709 56.0382 15.3142 55.7036 15.798C 55.3695 16.2812 55.0842 16.692 54.8517 17.026C 54.6143 17.3594 54.4106 17.6476 54.2383 17.8922C 54.0683 18.1379 53.8722 18.3776 53.6609 18.6179C 53.4452 18.8581 53.1871 19.1245 52.8823 19.4149C 52.5776 19.7064 52.1831 20.0692 51.6915 20.5045C 51.6225 20.5666 51.5176 20.6532 51.3775 20.7655C 51.2357 20.8739 51.0955 21.0008 50.9597 21.1452C 50.9043 21.2013 50.857 21.2629 50.8092 21.325C 50.2512 21.7292 49.6091 22.1122 48.899 22.3475C 48.6741 22.4222 48.4476 22.4728 48.2976 22.4325C 48.2254 22.4135 48.1395 22.3835 48.0466 22.2843C 47.9564 22.1825 47.8673 22.0485 47.781 21.8785C 47.694 21.7063 47.6174 21.5124 47.5501 21.2966C 47.4822 21.0798 47.4409 20.8575 47.4235 20.6265C 47.4208 20.5639 47.4153 20.5029 47.4099 20.4413C 47.4262 20.2626 47.4485 20.0796 47.4832 19.8921C 47.5158 19.7069 47.5512 19.5293 47.5865 19.3642C 47.6207 19.2003 47.6555 19.0472 47.6995 18.9033C 47.738 18.7595 47.7788 18.6424 47.8184 18.5519C 48.1884 17.7456 48.5839 16.9165 49.0131 16.0666C 49.439 15.2178 49.8617 14.3521 50.2762 13.4761C 50.6951 12.5962 51.0939 11.7131 51.4714 10.8218C 51.8523 9.92837 52.1761 9.0409 52.4483 8.15397C 52.7172 7.26976 52.9225 6.39101 53.0567 5.51606C 53.1871 4.64493 53.2197 3.78797 53.1583 2.9528C 53.1295 2.57743 53.0741 2.21024 52.9888 1.85231C 52.8981 1.49329 52.7721 1.17295 52.6036 0.892921C 52.4363 0.613985 52.2152 0.393343 51.9452 0.22718C 51.692 0.0746371 51.3872 -5.71514e-09 51.0276 -5.71514e-09C 51.0004 -5.71514e-09 50.9733 0.000544809 50.9466 0.00108961C 50.3686 0.0207023 49.8085 0.211926 49.2761 0.568767C 48.7382 0.924519 48.2319 1.40993 47.7619 2.01847C 47.2877 2.62646 46.8449 3.33579 46.4309 4.14427C 46.0186 4.95274 45.6448 5.81897 45.3052 6.74349C 44.97 7.6691 44.6783 8.63066 44.4284 9.63309C 44.1769 10.6328 43.9737 11.6232 43.808 12.612C 43.6477 13.6014 43.538 14.557 43.4809 15.4831C 43.4244 16.4098 43.4244 17.2651 43.4809 18.0502C 43.5537 19.0581 43.7075 20.0175 43.9508 20.9327C 43.8808 21.0161 43.8112 21.1081 43.7417 21.1893C 43.5619 21.3969 43.3685 21.599 43.1631 21.7935C 42.9588 21.9863 42.7502 22.1629 42.5405 22.3203C 42.333 22.4745 42.1233 22.6025 41.9174 22.6968C 41.7055 22.797 41.5077 22.8466 41.3083 22.8531C 41.0481 22.8597 40.8726 22.748 40.7754 22.5164C 40.6787 22.2865 40.6195 21.9613 40.5912 21.5489C 40.557 21.0646 40.5673 20.5497 40.6254 20.006C 40.6798 19.4612 40.7444 18.9175 40.8216 18.3727C 40.8949 17.8279 40.9601 17.2978 41.0161 16.7786C 41.0726 16.2594 41.0878 15.7904 41.0595 15.3649C 41.04 15.0947 40.9998 14.8784 40.9362 14.7199C 40.8753 14.5657 40.7944 14.442 40.6961 14.3597C 40.5983 14.2753 40.4864 14.2197 40.3636 14.1985C 40.2408 14.1761 40.1104 14.1658 39.9719 14.1718C 39.8719 14.1761 39.7649 14.1805 39.659 14.1898C 39.5546 14.1985 39.4487 14.2023 39.3477 14.2067C 39.226 14.2105 39.1064 14.2088 38.9891 14.2012C 38.8734 14.1909 38.7593 14.1663 38.6452 14.1249C 38.5295 14.0857 38.4322 14.0214 38.3529 13.9272C 38.2709 13.8335 38.1861 13.737 38.1041 13.639C 38.0155 13.5398 37.9112 13.4554 37.7863 13.3807C 37.6711 13.3126 37.5228 13.2783 37.3402 13.2783C 37.3191 13.2783 37.2979 13.2789 37.2761 13.2794C 36.6362 13.3028 36.0174 13.4592 35.417 13.7409C 34.8167 14.0258 34.2523 14.3968 33.7247 14.855C 33.1961 15.3164 32.7169 15.8487 32.2818 16.4518C 31.851 17.057 31.4848 17.6966 31.1833 18.3694C 30.879 19.0406 30.6525 19.7282 30.502 20.4239C 30.4613 20.6129 30.427 20.7998 30.3999 20.985C 29.9462 21.4606 29.4649 21.903 28.958 22.3067C 28.4348 22.7196 27.9138 23.0645 27.3879 23.3429C 26.8599 23.6218 26.3736 23.7667 25.9249 23.788C 25.4691 23.8049 25.0866 23.7291 24.7856 23.5532C 24.4852 23.3805 24.244 23.156 24.0593 22.8809C 23.8746 22.6085 23.742 22.3001 23.6621 21.9662C 23.5812 21.6311 23.5328 21.3086 23.5122 20.9948C 23.5013 20.7883 23.4932 20.5296 23.4932 20.2223C 23.4932 19.9134 23.5182 19.5876 23.5611 19.2466C 23.6062 18.9055 23.6779 18.5612 23.7692 18.2131C 23.8599 17.865 23.9914 17.5501 24.1652 17.2684C 24.3385 16.9851 24.5596 16.7558 24.8171 16.5727C 25.0768 16.3907 25.3947 16.2889 25.7793 16.2709C 25.9358 16.2616 26.0433 16.3275 26.0977 16.4632C 26.1531 16.6016 26.184 16.7737 26.1998 16.9824C 26.2096 17.124 26.2112 17.2782 26.2096 17.4531C 26.2058 17.6258 26.2096 17.793 26.2183 17.9483C 26.2405 18.3313 26.3247 18.6282 26.4785 18.8374C 26.6235 19.051 26.9169 19.1463 27.3532 19.1273C 27.6395 19.1158 27.8981 19.0335 28.1235 18.8848C 28.3479 18.735 28.5343 18.54 28.6809 18.3041C 28.8293 18.066 28.9379 17.8018 29.002 17.5125C 29.0683 17.2188 29.0933 16.9263 29.0743 16.6305C 29.0482 16.2061 28.9352 15.8078 28.7266 15.4472C 28.5261 15.0843 28.2528 14.7776 27.9187 14.5226C 27.5808 14.2671 27.1799 14.0743 26.7224 13.9457C 26.3427 13.8373 25.9374 13.7839 25.5104 13.7839C 25.4207 13.7839 25.3305 13.7861 25.2393 13.791C 24.6167 13.8248 24.0506 13.9588 23.548 14.1968C 23.039 14.4366 22.5859 14.7465 22.1806 15.129C 21.7802 15.5087 21.4347 15.9462 21.1392 16.4381C 21.0267 16.6288 20.9284 16.8233 20.8322 17.0178C 20.7936 16.9835 20.7578 16.9497 20.7187 16.9154C 20.1075 16.394 19.4496 15.9375 18.7547 15.5469C 18.0566 15.1573 17.3156 14.8582 16.5284 14.6507C 15.9101 14.4861 15.2598 14.4033 14.5785 14.4033C 14.3971 14.4033 14.2124 14.4093 14.0266 14.4208C 12.9965 14.4845 12.0778 14.7182 11.2678 15.1192C 10.4594 15.5174 9.78248 16.0383 9.24029 16.6789C 8.69918 17.318 8.2977 18.0567 8.03095 18.8924C 7.76366 19.7276 7.65717 20.6151 7.70281 21.5527C 7.71856 21.9166 7.76257 22.2751 7.82994 22.6297C 7.74845 22.688 7.66261 22.7545 7.5822 22.8095C 7.33827 22.9779 7.08619 23.1457 6.8227 23.3113C 6.55867 23.4791 6.30007 23.6273 6.04636 23.7564C 5.79645 23.8893 5.55958 23.9956 5.3314 24.0773C 5.11083 24.1606 4.90656 24.2075 4.72728 24.2195C 4.65231 24.2238 4.57082 24.1802 4.4828 24.0865C 4.39479 23.9939 4.30895 23.8675 4.22366 23.7068C 4.14434 23.545 4.07154 23.362 4.00852 23.1577C 3.94605 22.9534 3.91236 22.7393 3.90204 22.517C 3.89878 22.4587 3.89606 22.3966 3.89606 22.3383C 3.91236 22.1672 3.94061 21.9902 3.9819 21.8077C 4.01667 21.623 4.05524 21.453 4.0949 21.2945C 4.13239 21.1337 4.17585 20.9839 4.21986 20.8434C 4.26386 20.705 4.30787 20.5911 4.35133 20.5018C 4.74303 19.7069 5.16516 18.8897 5.61282 18.0513C 6.06102 17.215 6.50651 16.3608 6.94874 15.4956C 7.39205 14.6316 7.8131 13.7594 8.21838 12.8823C 8.61932 12.0062 8.96702 11.1356 9.26637 10.271C 9.55811 9.40427 9.7852 8.54622 9.94112 7.69688C 10.097 6.85027 10.1535 6.02327 10.115 5.2186C 10.097 4.86013 10.046 4.51091 9.96882 4.16878C 9.89331 3.82502 9.77324 3.5232 9.61134 3.2617C 9.44999 3.00019 9.23649 2.79644 8.97137 2.64989C 8.74862 2.52894 8.48513 2.46902 8.17655 2.46902C 8.11082 2.46902 8.04291 2.47174 7.97282 2.47773C 7.39423 2.5235 6.82976 2.73215 6.28485 3.09935C 5.73669 3.46981 5.21949 3.96012 4.72999 4.56648C 4.23833 5.17557 3.77437 5.88053 3.34083 6.67648C 2.90295 7.4757 2.50745 8.32776 2.14454 9.23484C 1.78108 10.1397 1.46381 11.0839 1.18457 12.0574C 0.909667 13.0332 0.676056 13.9985 0.485909 14.9574C 0.299022 15.9168 0.163203 16.8456 0.0849706 17.738C 0.00510879 18.6348 -0.0171674 19.4596 0.0127129 20.213C 0.0621512 21.1975 0.195255 22.1285 0.419628 23.0127C 0.639656 23.8959 0.929224 24.6651 1.28507 25.3216C 1.63603 25.9824 2.04621 26.4994 2.49658 26.8753C 2.95294 27.2518 3.43102 27.4245 3.93844 27.394C 4.25735 27.3744 4.59363 27.3139 4.95709 27.2104C 5.31945 27.108 5.68725 26.9761 6.06591 26.8165C 6.43969 26.6569 6.81509 26.4804 7.1867 26.2837C 7.55613 26.0843 7.9174 25.8871 8.2613 25.6839C 8.48676 25.5499 8.71277 25.3995 8.93877 25.2551C 8.95127 25.272 8.96322 25.2911 8.97626 25.3091C 9.37285 25.8195 9.87592 26.2205 10.4817 26.5185C 11.0842 26.8187 11.7953 26.9445 12.62 26.9015C 13.1905 26.8704 13.7245 26.7539 14.2178 26.5474C 14.7165 26.3431 15.1669 26.074 15.5754 25.7422C 15.9834 25.4098 16.3409 25.0247 16.6506 24.5883C 16.9592 24.1481 17.2123 23.6839 17.4172 23.1893C 17.6187 22.6957 17.7676 22.1857 17.8578 21.66C 17.9512 21.1386 17.9822 20.6227 17.9556 20.1117C 17.9257 19.6056 17.8273 19.0766 17.6622 18.5263C 17.4943 17.9783 17.2645 17.4624 16.9635 16.9764C 17.001 16.9285 17.0352 16.8778 17.0678 16.8282C 17.4155 17.0178 17.8301 17.2493 18.3125 17.5315C 18.7949 17.8127 19.2866 18.1107 19.7858 18.4326C 19.9271 18.5231 20.0608 18.6168 20.1977 18.7083C 20.1211 19.0052 20.0575 19.3032 20.0135 19.6034C 19.9309 20.1547 19.9092 20.6805 19.9336 21.1795C 19.9755 21.8807 20.1276 22.5502 20.3894 23.1865C 20.6497 23.825 21.0158 24.3791 21.4814 24.8542C 21.953 25.3281 22.5202 25.7002 23.1862 25.9639C 23.8561 26.2319 24.6183 26.348 25.4799 26.3153C 25.9754 26.2951 26.4578 26.2058 26.9343 26.044C 27.4053 25.8833 27.8557 25.6752 28.2882 25.4311C 28.7152 25.1821 29.1259 24.9032 29.5143 24.5927C 29.899 24.2848 30.2505 23.9667 30.5808 23.6414C 30.6253 23.7624 30.6759 23.8795 30.7307 23.9917C 30.9562 24.4434 31.243 24.8226 31.5886 25.1304C 31.939 25.4376 32.3296 25.6713 32.7648 25.8266C 33.2032 25.9851 33.6476 26.0554 34.0958 26.0413C 34.5147 26.0298 34.9297 25.9508 35.3415 25.807C 35.7588 25.6621 36.1488 25.4823 36.5232 25.2649C 36.8964 25.0476 37.2392 24.8073 37.5483 24.5431C 37.858 24.2816 38.1166 24.0228 38.3241 23.7689C 38.6713 24.4728 39.0613 25.0062 39.5003 25.3695C 39.9333 25.7313 40.4614 25.9078 41.0807 25.892C 41.5947 25.8811 42.0966 25.7482 42.5975 25.4992C 43.0925 25.2513 43.5532 24.9479 43.9764 24.5937C 44.3561 24.2778 44.6913 23.9449 44.9983 23.6011C 45.3465 24.2129 45.7301 24.7131 46.1522 25.0884C 46.6145 25.4992 47.0991 25.7035 47.606 25.6953C 47.8847 25.6871 49.5569 25.7144 52.3287 23.0934C 52.3423 23.0901 52.3575 23.089 52.3706 23.0857C 52.4531 23.5657 52.6194 23.9743 52.8677 24.3077C 53.1176 24.6455 53.4305 24.9124 53.8064 25.1189C 54.1802 25.3232 54.6094 25.4741 55.0946 25.5678C 55.5775 25.6605 56.0942 25.7073 56.6451 25.7029C 57.4073 25.6942 60.555 25.0617 60.7838 22.1116C 60.7349 21.5385 60.6756 21.0406 60.6007 20.62C 60.5241 20.1994 60.4399 19.8273 60.347 19.5037C 60.2481 19.1823 60.1536 18.8974 60.0596 18.6516C 59.9683 18.4059 59.8787 18.1728 59.7901 17.9559C 59.7048 17.7369 59.6288 17.5141 59.5723 17.2875C 59.5098 17.0587 59.4701 16.8042 59.4478 16.5275C 59.4707 16.4289 59.5647 16.2747 59.7412 16.0715C 59.9053 15.8716 60.09 15.646 60.2807 15.3992ZM 3.53044 14.6501C 3.62171 13.7757 3.75373 12.9231 3.9379 12.0901C 4.12533 11.2571 4.33938 10.4672 4.58494 9.72135C 4.83485 8.97879 5.10268 8.32013 5.38301 7.75082C 5.66661 7.18314 5.95726 6.72606 6.25117 6.38229C 6.54454 6.03852 6.82759 5.85547 7.09217 5.83586C 7.16768 5.82932 7.21549 5.91376 7.23776 6.08646C 7.26167 6.26189 7.27797 6.47218 7.29318 6.71897C 7.24428 7.50076 7.09325 8.355 6.82976 9.27625C 6.56845 10.2008 6.25335 11.1275 5.88283 12.0602C 5.50852 12.995 5.10649 13.9037 4.6773 14.7901C 4.24974 15.6749 3.84282 16.4714 3.4571 17.1812C 3.41526 16.3657 3.44352 15.5218 3.53044 14.6501ZM 15.1109 21.2182C 15.0039 21.7728 14.8513 22.28 14.6535 22.7447C 14.4509 23.2083 14.2107 23.5962 13.9288 23.9084C 13.6457 24.2206 13.3458 24.3851 13.0264 24.4009C 12.9737 24.4042 12.9237 24.4063 12.8737 24.4063C 12.5733 24.4063 12.3093 24.3513 12.0767 24.2429C 11.8105 24.116 11.5867 23.9367 11.415 23.7112C 11.2428 23.4824 11.1124 23.2143 11.0212 22.9016C 10.931 22.59 10.8766 22.2538 10.8565 21.8916C 10.831 21.3702 10.8766 20.8232 10.9956 20.2479C 11.1146 19.6726 11.2906 19.1452 11.5286 18.6609C 11.7649 18.1777 12.0441 17.7767 12.3761 17.4536C 12.7042 17.1333 13.0595 16.9617 13.4425 16.9394C 13.7299 16.9203 13.9793 16.9775 14.1928 17.1142C 14.4069 17.2466 14.5813 17.434 14.7268 17.6754C 14.8708 17.9178 14.9855 18.2087 15.0659 18.54C 15.1506 18.8777 15.2028 19.2449 15.2256 19.6388C 15.2517 20.1406 15.2158 20.6652 15.1109 21.2182ZM 37.2414 19.6704C 37.2224 19.9532 37.162 20.3046 37.0659 20.7311C 36.9654 21.155 36.8285 21.5674 36.6492 21.9705C 36.4715 22.3693 36.2526 22.7164 35.9886 23.0046C 35.7272 23.2949 35.4263 23.4437 35.0807 23.4546C 35.065 23.4557 35.0482 23.4557 35.0335 23.4557C 34.8412 23.4557 34.6744 23.4099 34.5369 23.3206C 34.3897 23.2247 34.2707 23.0983 34.1767 22.9365C 34.0838 22.7779 34.0083 22.5982 33.9681 22.3939C 33.9176 22.1885 33.8888 21.9765 33.8769 21.7575C 33.8502 21.3735 33.8768 20.9594 33.9556 20.5187C 34.0366 20.0763 34.1566 19.6372 34.3251 19.1954C 34.494 18.7557 34.6983 18.3335 34.9428 17.9292C 35.1851 17.5239 35.4578 17.1654 35.7598 16.8462C 36.0592 16.528 36.3824 16.2714 36.7323 16.0769C 37.0838 15.8841 37.4511 15.7822 37.8319 15.7702C 37.6347 17.0679 37.4364 18.3689 37.2414 19.6704ZM 46.8443 12.4339C 46.9074 11.5317 47.0236 10.6535 47.1833 9.79489C 47.3425 8.93847 47.537 8.12891 47.7609 7.36728C 47.9917 6.60457 48.2406 5.93447 48.5068 5.35753C 48.7752 4.78113 49.0522 4.32024 49.3358 3.9781C 49.6189 3.63434 49.8932 3.45837 50.1621 3.44802C 50.2344 3.44693 50.2866 3.53627 50.3115 3.71715C 50.3403 3.89965 50.3632 4.11812 50.3822 4.3758C 50.3604 5.18701 50.2317 6.06685 49.9932 7.01098C 49.7563 7.9573 49.4651 8.90633 49.118 9.85809C 48.7735 10.8115 48.3976 11.7371 47.9961 12.6376C 47.5924 13.5344 47.2062 14.3439 46.8362 15.0642C 46.7775 14.2126 46.7813 13.3377 46.8443 12.4339ZM 57.6148 22.1176C 57.5806 22.3742 57.4997 22.5998 57.3736 22.7921C 57.2519 22.9855 57.0726 23.1413 56.8455 23.2606C 56.6179 23.3783 56.3191 23.4399 55.9562 23.4426C 55.6574 23.4469 55.3885 23.381 55.1435 23.2503C 54.9028 23.1173 54.6833 22.9735 54.497 22.8161C 54.3057 22.6554 54.1395 22.5126 53.9912 22.3808C 53.8488 22.2478 53.7184 22.1819 53.6087 22.1852C 54.7186 21.0275 55.8285 19.8698 56.9325 18.711C 56.9901 18.8538 57.0585 19.021 57.134 19.2242C 57.2085 19.4231 57.2791 19.6366 57.3497 19.8655C 57.4165 20.0921 57.4763 20.3313 57.5274 20.5819C 57.5822 20.8303 57.6197 21.076 57.636 21.319C 57.6588 21.5974 57.6507 21.8654 57.6148 22.1176Z"/>
<path id="path3_fill" d="M 11.5772 0.28547C 9.93003 2.11925 4.90362 3.05521 1.26312 0.86023C 0.89858 0.623789 0.408005 0.696247 0.152664 1.03075C -0.107566 1.36308 -0.0266242 1.82888 0.330853 2.07022C 5.70659 5.28452 11.5935 2.87053 12.8235 1.21162C 13.099 0.886926 13.0403 0.436923 12.6942 0.163435C 12.5416 0.0424904 11.9983 -0.187413 11.5772 0.28547Z"/>
<path id="path4_fill" d="M 0.774582 0.00576337C 0.335614 0.0351824 -0.0137074 0.358792 0.000417799 0.771203C 0.0118266 1.17599 0.380163 1.50068 0.795771 1.49851C 1.87526 1.48706 3.20684 2.21273 3.61375 2.46879C 4.11683 2.77551 4.5634 2.4835 4.71715 2.27212C 4.96271 1.93053 4.86438 1.47181 4.50853 1.23646C 4.15323 1.00111 2.20177 -0.0884864 0.774582 0.00576337Z"/>
<path id="path5_fill" d="M 0.615968 0.228036C 0.186235 0.321741 -0.0799677 0.722712 0.0216252 1.12205C 0.121045 1.5252 0.549685 1.77417 0.976158 1.67992C 1.57648 1.55026 3.37202 1.30183 4.46401 1.7295C 4.98882 1.91146 5.37943 1.61127 5.50602 1.32526C 5.67443 0.945533 5.48319 0.509696 5.07845 0.351706C 3.66538 -0.197994 1.61832 0.00684883 0.615968 0.228036Z"/>
<path id="path6_fill" d="M 0.0233559 0.00897385L 2.51185e-06 0.00448762C 0.00778842 1.0608e-06 0.0127936 -7.53054e-07 0.0155743 -7.53054e-07"/>
<path id="path7_fill" d="M 13.0849 0.0016995C 7.1566 -0.0941846 1.77218 3.87901 0.269478 8.92001C -1.50704 15.7169 6.0744 30.8127 6.26564 30.8127C 6.46665 30.8127 22.6895 23.2547 25.4988 17.2799C 28.584 11.4811 24.8718 0.279001 13.0849 0.0016995ZM 22.7894 16.3243C 20.7391 20.7541 8.7897 26.5692 7.67979 26.8553C 7.00884 25.9809 1.63147 14.4225 3.01629 9.77371C 4.46847 4.90214 10.3342 1.42144 16.5135 3.32387L 16.6335 3.36255C 22.7183 5.52539 24.9375 11.6854 22.7894 16.3243Z"/>
</defs>
</svg>
