<svg width="28" height="62" viewBox="0 0 28 62" version="1.1" xmlns="http://www.w3.org/2000/svg" xmlns:xlink="http://www.w3.org/1999/xlink">
<title>scroll</title>
<desc>Created using Figma</desc>
<g id="Canvas" transform="translate(-7217 -1124)">
<g id="scroll">
<g id="noun_917747_cc">
<g id="Vector">
<use xlink:href="#path0_fill" transform="matrix(1 -2.66235e-24 2.68147e-24 1 7220.89 1170.5)" fill="#FFFFFF"/>
</g>
<g id="Vector">
<use xlink:href="#path1_fill" transform="matrix(1 -2.66235e-24 2.68147e-24 1 7220.89 1176.17)" fill="#FFFFFF"/>
</g>
<g id="Vector">
<use xlink:href="#path2_fill" transform="matrix(1 -2.66235e-24 2.68147e-24 1 7220.89 1181.82)" fill="#FFFFFF"/>
</g>
</g>
<g id="noun_496869_cc">
<g id="Vector">
<use xlink:href="#path3_fill" transform="matrix(-1 1.22027e-16 -1.22904e-16 -1 7245 1165.85)" fill="#FFFFFF"/>
</g>
<g id="Vector">
<use xlink:href="#path4_fill" transform="matrix(-1 1.22027e-16 -1.22904e-16 -1 7232.56 1157.32)" fill="#FFFFFF"/>
</g>
</g>
</g>
</g>
<defs>
<path id="path0_fill" d="M 0.640836 4.17585L 1.36883 4.17585C 1.93654 4.1748 2.49082 4.00795 2.95978 3.69696C 3.42875 3.38596 3.79074 2.94517 3.99882 2.43175C 4.12596 2.08111 4.36191 1.77744 4.67411 1.56264C 4.98631 1.34784 5.35939 1.23249 5.74189 1.23249C 6.12439 1.23249 6.49747 1.34784 6.80967 1.56264C 7.12187 1.77744 7.35782 2.08111 7.48496 2.43175C 7.69152 2.94533 8.05265 3.3864 8.52117 3.69734C 8.98968 4.00827 9.5438 4.1746 10.1111 4.1746C 10.6784 4.1746 11.2325 4.00827 11.7011 3.69734C 12.1696 3.3864 12.5307 2.94533 12.7373 2.43175C 12.8645 2.08052 13.1008 1.77633 13.4135 1.56116C 13.7261 1.34598 14.0998 1.23042 14.4829 1.23042C 14.866 1.23042 15.2397 1.34598 15.5523 1.56116C 15.865 1.77633 16.1013 2.08052 16.2285 2.43175C 16.4348 2.94536 16.7956 3.38656 17.2639 3.69771C 17.7322 4.00887 18.2862 4.1755 18.8534 4.17585L 19.5814 4.17585C 19.7513 4.17585 19.9143 4.11022 20.0345 3.99341C 20.1547 3.87659 20.2222 3.71816 20.2222 3.55296C 20.2222 3.38776 20.1547 3.22932 20.0345 3.11251C 19.9143 2.99569 19.7513 2.93007 19.5814 2.93007L 18.8611 2.93007C 18.542 2.93126 18.2305 2.83598 17.9696 2.65741C 17.7087 2.47884 17.5115 2.22584 17.4051 1.93344C 17.4051 1.92098 17.4051 1.90853 17.3872 1.89607C 17.1509 1.33328 16.7466 0.852189 16.2264 0.514833C 15.7062 0.177477 15.0939 -0.000675757 14.4686 0.00334606C 13.8433 0.00736787 13.2335 0.19338 12.7179 0.537397C 12.2024 0.881415 11.8047 1.36766 11.5761 1.93344C 11.4732 2.22983 11.2772 2.48738 11.0158 2.66981C 10.7543 2.85224 10.4406 2.95036 10.1188 2.95036C 9.79698 2.95036 9.48326 2.85224 9.22184 2.66981C 8.96041 2.48738 8.76444 2.22983 8.66154 1.93344C 8.43458 1.36884 8.03913 0.883093 7.52599 0.538599C 7.01286 0.194105 6.40548 0.0065993 5.78188 0.000171004C 5.15829 -0.0062573 4.54695 0.168685 4.02642 0.502523C 3.50588 0.836362 3.09992 1.31385 2.86069 1.87364C 2.85027 1.89225 2.84086 1.91138 2.8325 1.93095C 2.726 2.22375 2.52833 2.47704 2.26695 2.65564C 2.00557 2.83424 1.69345 2.92929 1.37395 2.92757L 0.640836 2.92757C 0.470876 2.92757 0.307877 2.9932 0.187697 3.11002C 0.0675165 3.22683 1.42294e-16 3.38526 0 3.55047C 1.63638e-16 3.71567 0.0675165 3.8741 0.187697 3.99092C 0.307877 4.10773 0.470876 4.17336 0.640836 4.17336L 0.640836 4.17585Z"/>
<path id="path1_fill" d="M 19.5891 2.93007L 18.8611 2.93007C 18.542 2.93126 18.2305 2.83598 17.9696 2.65741C 17.7087 2.47884 17.5115 2.22584 17.4051 1.93344C 17.4051 1.92098 17.4051 1.90853 17.3872 1.89607C 17.1509 1.33328 16.7466 0.852189 16.2264 0.514833C 15.7062 0.177477 15.0939 -0.000675641 14.4686 0.00334617C 13.8433 0.00736799 13.2335 0.19338 12.7179 0.537397C 12.2024 0.881415 11.8047 1.36766 11.5761 1.93344C 11.4732 2.22983 11.2772 2.48738 11.0158 2.66981C 10.7543 2.85224 10.4406 2.95036 10.1188 2.95036C 9.79698 2.95036 9.48326 2.85224 9.22184 2.66981C 8.96041 2.48738 8.76444 2.22983 8.66154 1.93344C 8.43458 1.36884 8.03913 0.883093 7.52599 0.538599C 7.01286 0.194105 6.40548 0.00659948 5.78188 0.000171176C 5.15829 -0.00625712 4.54695 0.168685 4.02642 0.502524C 3.50588 0.836362 3.09992 1.31385 2.86069 1.87364C 2.85025 1.89224 2.84083 1.91137 2.8325 1.93095C 2.726 2.22375 2.52833 2.47704 2.26695 2.65564C 2.00557 2.83424 1.69345 2.92929 1.37395 2.92757L 0.640836 2.92757C 0.470876 2.92757 0.307877 2.9932 0.187697 3.11001C 0.0675165 3.22683 1.06721e-16 3.38526 0 3.55046C 1.35179e-16 3.71567 0.0675165 3.8741 0.187697 3.99092C 0.307877 4.10773 0.470876 4.17336 0.640836 4.17336L 1.36883 4.17336C 1.93654 4.1723 2.49082 4.00546 2.95978 3.69446C 3.42875 3.38347 3.79074 2.94268 3.99882 2.42926C 4.12596 2.07861 4.36191 1.77495 4.67411 1.56015C 4.98631 1.34535 5.35939 1.22999 5.74189 1.22999C 6.12439 1.22999 6.49747 1.34535 6.80967 1.56015C 7.12187 1.77495 7.35782 2.07861 7.48496 2.42926C 7.69152 2.94284 8.05265 3.38391 8.52117 3.69484C 8.98968 4.00578 9.5438 4.17211 10.1111 4.17211C 10.6784 4.17211 11.2325 4.00578 11.7011 3.69484C 12.1696 3.38391 12.5307 2.94284 12.7373 2.42926C 12.8645 2.07803 13.1008 1.77384 13.4135 1.55867C 13.7261 1.34349 14.0998 1.22793 14.4829 1.22793C 14.866 1.22793 15.2397 1.34349 15.5523 1.55867C 15.865 1.77384 16.1013 2.07803 16.2285 2.42926C 16.4348 2.94287 16.7956 3.38407 17.2639 3.69522C 17.7322 4.00637 18.2862 4.17301 18.8534 4.17336L 19.5814 4.17336C 19.7513 4.17336 19.9143 4.10773 20.0345 3.99092C 20.1547 3.8741 20.2222 3.71567 20.2222 3.55046C 20.2222 3.38526 20.1547 3.22683 20.0345 3.11001C 19.9143 2.9932 19.7513 2.92757 19.5814 2.92757L 19.5891 2.93007Z"/>
<path id="path2_fill" d="M 19.5891 2.93884L 18.8611 2.93884C 18.542 2.94003 18.2305 2.84475 17.9696 2.66618C 17.7087 2.48762 17.5115 2.23461 17.4051 1.94221C 17.4051 1.92976 17.4051 1.9173 17.3872 1.90484C 17.1509 1.34205 16.7466 0.860961 16.2264 0.523605C 15.7062 0.18625 15.0939 0.0080968 14.4686 0.0121186C 13.8433 0.0161404 13.2335 0.202153 12.7179 0.54617C 12.2024 0.890188 11.8047 1.37643 11.5761 1.94221C 11.4732 2.2386 11.2772 2.49615 11.0158 2.67858C 10.7543 2.86101 10.4406 2.95914 10.1188 2.95914C 9.79698 2.95914 9.48326 2.86101 9.22184 2.67858C 8.96041 2.49615 8.76444 2.2386 8.66154 1.94221C 8.43595 1.37586 8.04099 0.888173 7.52759 0.542033C 7.01419 0.195893 6.40588 0.0071709 5.7811 0.000199902C 5.15633 -0.00677109 4.54373 0.168328 4.02229 0.502922C 3.50084 0.837515 3.09447 1.31626 2.85557 1.87743C 2.84515 1.89605 2.83574 1.91517 2.82737 1.93474C 2.72087 2.22754 2.5232 2.48083 2.26182 2.65943C 2.00044 2.83803 1.68833 2.93308 1.36883 2.93136L 0.640836 2.93136C 0.470876 2.93136 0.307877 2.99699 0.187697 3.1138C 0.0675165 3.23062 1.06721e-16 3.38905 0 3.55425C 1.35179e-16 3.71946 0.0675165 3.87789 0.187697 3.99471C 0.307877 4.11152 0.470876 4.17715 0.640836 4.17715L 1.36883 4.17715C 1.93654 4.17609 2.49082 4.00925 2.95978 3.69825C 3.42875 3.38726 3.79074 2.94647 3.99882 2.43305C 4.12596 2.0824 4.36191 1.77874 4.67411 1.56394C 4.98631 1.34914 5.35939 1.23378 5.74189 1.23378C 6.12439 1.23378 6.49747 1.34914 6.80967 1.56394C 7.12187 1.77874 7.35782 2.0824 7.48496 2.43305C 7.69152 2.94663 8.05265 3.3877 8.52117 3.69863C 8.98968 4.00957 9.5438 4.1759 10.1111 4.1759C 10.6784 4.1759 11.2325 4.00957 11.7011 3.69863C 12.1696 3.3877 12.5307 2.94663 12.7373 2.43305C 12.8645 2.08182 13.1008 1.77763 13.4135 1.56246C 13.7261 1.34728 14.0998 1.23172 14.4829 1.23172C 14.866 1.23172 15.2397 1.34728 15.5523 1.56246C 15.865 1.77763 16.1013 2.08182 16.2285 2.43305C 16.4348 2.94666 16.7956 3.38786 17.2639 3.69901C 17.7322 4.01016 18.2862 4.1768 18.8534 4.17715L 19.5814 4.17715C 19.7513 4.17715 19.9143 4.11152 20.0345 3.99471C 20.1547 3.87789 20.2222 3.71946 20.2222 3.55425C 20.2222 3.38905 20.1547 3.23062 20.0345 3.1138C 19.9143 2.99699 19.7513 2.93136 19.5814 2.93136L 19.5891 2.93884Z"/>
<path id="path3_fill" d="M 14 0C 6.3 0 0 6.2775 0 13.95L 0 27.9C 0 35.5725 6.3 41.85 14 41.85C 21.7 41.85 28 35.5725 28 27.9L 28 13.95C 28 6.2775 21.7 0 14 0ZM 24.8889 27.9C 24.8889 33.8675 19.9889 38.75 14 38.75C 8.01111 38.75 3.11111 33.8675 3.11111 27.9L 3.11111 13.95C 3.11111 7.9825 8.01111 3.1 14 3.1C 19.9889 3.1 24.8889 7.9825 24.8889 13.95L 24.8889 27.9Z"/>
<path id="path4_fill" d="M 1.55556 0C 0.7 0 0 0.6975 0 1.55L 0 6.2C 0 7.0525 0.7 7.75 1.55556 7.75C 2.41111 7.75 3.11111 7.0525 3.11111 6.2L 3.11111 1.55C 3.11111 0.6975 2.41111 0 1.55556 0Z"/>
</defs>
</svg>
